<svg width="800" height="130" viewBox="0 0 800 130" fill="none" xmlns="http://www.w3.org/2000/svg">
<rect width="800" height="130" fill="black"/>
<path d="M287.574 32.46L284.01 42H282.354L279.6 34.764L276.81 42H275.154L271.608 32.46H273.246L276.018 40.056L278.898 32.46H280.356L283.182 40.092L286.026 32.46H287.574ZM292.503 32.37C293.823 32.37 294.831 32.694 295.527 33.342C296.235 33.99 296.589 34.956 296.589 36.24V42H294.951V40.74C294.663 41.184 294.249 41.526 293.709 41.766C293.181 41.994 292.551 42.108 291.819 42.108C290.751 42.108 289.893 41.85 289.245 41.334C288.609 40.818 288.291 40.14 288.291 39.3C288.291 38.46 288.597 37.788 289.209 37.284C289.821 36.768 290.793 36.51 292.125 36.51H294.861V36.168C294.861 35.424 294.645 34.854 294.213 34.458C293.781 34.062 293.145 33.864 292.305 33.864C291.741 33.864 291.189 33.96 290.649 34.152C290.109 34.332 289.653 34.578 289.281 34.89L288.561 33.594C289.053 33.198 289.641 32.898 290.325 32.694C291.009 32.478 291.735 32.37 292.503 32.37ZM292.107 40.776C292.767 40.776 293.337 40.632 293.817 40.344C294.297 40.044 294.645 39.624 294.861 39.084V37.752H292.197C290.733 37.752 290.001 38.244 290.001 39.228C290.001 39.708 290.187 40.086 290.559 40.362C290.931 40.638 291.447 40.776 292.107 40.776ZM305.15 41.442C304.898 41.658 304.586 41.826 304.214 41.946C303.842 42.054 303.458 42.108 303.062 42.108C302.102 42.108 301.358 41.85 300.83 41.334C300.302 40.818 300.038 40.08 300.038 39.12V33.882H298.418V32.46H300.038V30.372H301.766V32.46H304.502V33.882H301.766V39.048C301.766 39.564 301.892 39.96 302.144 40.236C302.408 40.512 302.78 40.65 303.26 40.65C303.788 40.65 304.238 40.5 304.61 40.2L305.15 41.442ZM311.081 42.108C310.109 42.108 309.239 41.898 308.471 41.478C307.715 41.058 307.121 40.482 306.689 39.75C306.257 39.006 306.041 38.166 306.041 37.23C306.041 36.294 306.257 35.46 306.689 34.728C307.121 33.984 307.715 33.408 308.471 33C309.239 32.58 310.109 32.37 311.081 32.37C311.945 32.37 312.713 32.544 313.385 32.892C314.069 33.24 314.597 33.744 314.969 34.404L313.655 35.25C313.355 34.794 312.983 34.452 312.539 34.224C312.095 33.996 311.603 33.882 311.063 33.882C310.439 33.882 309.875 34.02 309.371 34.296C308.879 34.572 308.489 34.968 308.201 35.484C307.925 35.988 307.787 36.57 307.787 37.23C307.787 37.902 307.925 38.496 308.201 39.012C308.489 39.516 308.879 39.906 309.371 40.182C309.875 40.458 310.439 40.596 311.063 40.596C311.603 40.596 312.095 40.482 312.539 40.254C312.983 40.026 313.355 39.684 313.655 39.228L314.969 40.056C314.597 40.716 314.069 41.226 313.385 41.586C312.713 41.934 311.945 42.108 311.081 42.108ZM322.177 32.37C323.389 32.37 324.349 32.724 325.057 33.432C325.777 34.128 326.137 35.154 326.137 36.51V42H324.409V36.708C324.409 35.784 324.187 35.088 323.743 34.62C323.299 34.152 322.663 33.918 321.835 33.918C320.899 33.918 320.161 34.194 319.621 34.746C319.081 35.286 318.811 36.066 318.811 37.086V42H317.083V28.644H318.811V33.81C319.171 33.354 319.639 33 320.215 32.748C320.803 32.496 321.457 32.37 322.177 32.37ZM329.101 29.4H331.135L330.793 38.022H329.425L329.101 29.4ZM330.127 42.108C329.791 42.108 329.509 42 329.281 41.784C329.053 41.556 328.939 41.28 328.939 40.956C328.939 40.632 329.053 40.362 329.281 40.146C329.509 39.918 329.791 39.804 330.127 39.804C330.463 39.804 330.739 39.918 330.955 40.146C331.171 40.362 331.279 40.632 331.279 40.956C331.279 41.28 331.165 41.556 330.937 41.784C330.721 42 330.451 42.108 330.127 42.108ZM337.257 30.966H332.937V29.4H343.359V30.966H339.039V42H337.257V30.966ZM279.372 63.192C278.012 63.192 276.788 62.912 275.7 62.352C274.628 61.776 273.788 60.984 273.18 59.976C272.572 58.968 272.268 57.824 272.268 56.544C272.268 55.264 272.572 54.12 273.18 53.112C273.788 52.104 274.628 51.32 275.7 50.76C276.788 50.184 278.012 49.896 279.372 49.896C280.732 49.896 281.948 50.184 283.02 50.76C284.092 51.32 284.932 52.104 285.54 53.112C286.148 54.12 286.452 55.264 286.452 56.544C286.452 57.824 286.148 58.968 285.54 59.976C284.932 60.984 284.092 61.776 283.02 62.352C281.948 62.912 280.732 63.192 279.372 63.192ZM279.372 60.12C280.332 60.12 281.116 59.8 281.724 59.16C282.348 58.504 282.66 57.632 282.66 56.544C282.66 55.456 282.348 54.592 281.724 53.952C281.116 53.296 280.332 52.968 279.372 52.968C278.412 52.968 277.62 53.296 276.996 53.952C276.372 54.592 276.06 55.456 276.06 56.544C276.06 57.632 276.372 58.504 276.996 59.16C277.62 59.8 278.412 60.12 279.372 60.12ZM301.963 50.088V63H298.411V61.464C297.915 62.024 297.323 62.456 296.635 62.76C295.947 63.048 295.203 63.192 294.403 63.192C292.707 63.192 291.363 62.704 290.371 61.728C289.379 60.752 288.883 59.304 288.883 57.384V50.088H292.627V56.832C292.627 58.912 293.499 59.952 295.243 59.952C296.139 59.952 296.859 59.664 297.403 59.088C297.947 58.496 298.219 57.624 298.219 56.472V50.088H301.963ZM313.759 62.376C313.391 62.648 312.935 62.856 312.391 63C311.863 63.128 311.303 63.192 310.711 63.192C309.175 63.192 307.983 62.8 307.135 62.016C306.303 61.232 305.887 60.08 305.887 58.56V53.256H303.895V50.376H305.887V47.232H309.631V50.376H312.847V53.256H309.631V58.512C309.631 59.056 309.767 59.48 310.039 59.784C310.327 60.072 310.727 60.216 311.239 60.216C311.831 60.216 312.335 60.056 312.751 59.736L313.759 62.376ZM320.205 63.192C319.133 63.192 318.085 63.064 317.061 62.808C316.037 62.536 315.221 62.2 314.613 61.8L315.861 59.112C316.437 59.48 317.133 59.784 317.949 60.024C318.765 60.248 319.565 60.36 320.349 60.36C321.933 60.36 322.725 59.968 322.725 59.184C322.725 58.816 322.509 58.552 322.077 58.392C321.645 58.232 320.981 58.096 320.085 57.984C319.029 57.824 318.157 57.64 317.469 57.432C316.781 57.224 316.181 56.856 315.669 56.328C315.173 55.8 314.925 55.048 314.925 54.072C314.925 53.256 315.157 52.536 315.621 51.912C316.101 51.272 316.789 50.776 317.685 50.424C318.597 50.072 319.669 49.896 320.901 49.896C321.813 49.896 322.717 50 323.613 50.208C324.525 50.4 325.277 50.672 325.869 51.024L324.621 53.688C323.485 53.048 322.245 52.728 320.901 52.728C320.101 52.728 319.501 52.84 319.101 53.064C318.701 53.288 318.501 53.576 318.501 53.928C318.501 54.328 318.717 54.608 319.149 54.768C319.581 54.928 320.269 55.08 321.213 55.224C322.269 55.4 323.133 55.592 323.805 55.8C324.477 55.992 325.061 56.352 325.557 56.88C326.053 57.408 326.301 58.144 326.301 59.088C326.301 59.888 326.061 60.6 325.581 61.224C325.101 61.848 324.397 62.336 323.469 62.688C322.557 63.024 321.469 63.192 320.205 63.192ZM328.611 50.088H332.355V63H328.611V50.088ZM330.483 48.288C329.795 48.288 329.235 48.088 328.803 47.688C328.371 47.288 328.155 46.792 328.155 46.2C328.155 45.608 328.371 45.112 328.803 44.712C329.235 44.312 329.795 44.112 330.483 44.112C331.171 44.112 331.731 44.304 332.163 44.688C332.595 45.072 332.811 45.552 332.811 46.128C332.811 46.752 332.595 47.272 332.163 47.688C331.731 48.088 331.171 48.288 330.483 48.288ZM348.982 45.192V63H345.406V61.512C344.478 62.632 343.134 63.192 341.374 63.192C340.158 63.192 339.054 62.92 338.062 62.376C337.086 61.832 336.318 61.056 335.758 60.048C335.198 59.04 334.918 57.872 334.918 56.544C334.918 55.216 335.198 54.048 335.758 53.04C336.318 52.032 337.086 51.256 338.062 50.712C339.054 50.168 340.158 49.896 341.374 49.896C343.022 49.896 344.31 50.416 345.238 51.456V45.192H348.982ZM342.022 60.12C342.966 60.12 343.75 59.8 344.374 59.16C344.998 58.504 345.31 57.632 345.31 56.544C345.31 55.456 344.998 54.592 344.374 53.952C343.75 53.296 342.966 52.968 342.022 52.968C341.062 52.968 340.27 53.296 339.646 53.952C339.022 54.592 338.71 55.456 338.71 56.544C338.71 57.632 339.022 58.504 339.646 59.16C340.27 59.8 341.062 60.12 342.022 60.12ZM365.095 56.592C365.095 56.64 365.071 56.976 365.023 57.6H355.255C355.431 58.4 355.847 59.032 356.503 59.496C357.159 59.96 357.975 60.192 358.951 60.192C359.623 60.192 360.215 60.096 360.727 59.904C361.255 59.696 361.743 59.376 362.191 58.944L364.183 61.104C362.967 62.496 361.191 63.192 358.855 63.192C357.399 63.192 356.111 62.912 354.991 62.352C353.871 61.776 353.007 60.984 352.399 59.976C351.791 58.968 351.487 57.824 351.487 56.544C351.487 55.28 351.783 54.144 352.375 53.136C352.983 52.112 353.807 51.32 354.847 50.76C355.903 50.184 357.079 49.896 358.375 49.896C359.639 49.896 360.783 50.168 361.807 50.712C362.831 51.256 363.631 52.04 364.207 53.064C364.799 54.072 365.095 55.248 365.095 56.592ZM358.399 52.728C357.551 52.728 356.839 52.968 356.263 53.448C355.687 53.928 355.335 54.584 355.207 55.416H361.567C361.439 54.6 361.087 53.952 360.511 53.472C359.935 52.976 359.231 52.728 358.399 52.728Z" fill="white"/>
<path d="M387.828 54.264C388.788 54.568 389.54 55.08 390.084 55.8C390.628 56.504 390.9 57.376 390.9 58.416C390.9 59.888 390.324 61.024 389.172 61.824C388.036 62.608 386.372 63 384.18 63H375.492V46.2H383.7C385.748 46.2 387.316 46.592 388.404 47.376C389.508 48.16 390.06 49.224 390.06 50.568C390.06 51.384 389.86 52.112 389.46 52.752C389.076 53.392 388.532 53.896 387.828 54.264ZM379.356 49.128V53.088H383.22C384.18 53.088 384.908 52.92 385.404 52.584C385.9 52.248 386.148 51.752 386.148 51.096C386.148 50.44 385.9 49.952 385.404 49.632C384.908 49.296 384.18 49.128 383.22 49.128H379.356ZM383.892 60.072C384.916 60.072 385.684 59.904 386.196 59.568C386.724 59.232 386.988 58.712 386.988 58.008C386.988 56.616 385.956 55.92 383.892 55.92H379.356V60.072H383.892ZM399.724 63.192C398.364 63.192 397.14 62.912 396.052 62.352C394.98 61.776 394.14 60.984 393.532 59.976C392.924 58.968 392.62 57.824 392.62 56.544C392.62 55.264 392.924 54.12 393.532 53.112C394.14 52.104 394.98 51.32 396.052 50.76C397.14 50.184 398.364 49.896 399.724 49.896C401.084 49.896 402.3 50.184 403.372 50.76C404.444 51.32 405.284 52.104 405.892 53.112C406.5 54.12 406.804 55.264 406.804 56.544C406.804 57.824 406.5 58.968 405.892 59.976C405.284 60.984 404.444 61.776 403.372 62.352C402.3 62.912 401.084 63.192 399.724 63.192ZM399.724 60.12C400.684 60.12 401.468 59.8 402.076 59.16C402.7 58.504 403.012 57.632 403.012 56.544C403.012 55.456 402.7 54.592 402.076 53.952C401.468 53.296 400.684 52.968 399.724 52.968C398.764 52.968 397.972 53.296 397.348 53.952C396.724 54.592 396.412 55.456 396.412 56.544C396.412 57.632 396.724 58.504 397.348 59.16C397.972 59.8 398.764 60.12 399.724 60.12ZM413.65 63.192C412.578 63.192 411.53 63.064 410.506 62.808C409.482 62.536 408.666 62.2 408.058 61.8L409.306 59.112C409.882 59.48 410.578 59.784 411.394 60.024C412.21 60.248 413.01 60.36 413.794 60.36C415.378 60.36 416.17 59.968 416.17 59.184C416.17 58.816 415.954 58.552 415.522 58.392C415.09 58.232 414.426 58.096 413.53 57.984C412.474 57.824 411.602 57.64 410.914 57.432C410.226 57.224 409.626 56.856 409.114 56.328C408.618 55.8 408.37 55.048 408.37 54.072C408.37 53.256 408.602 52.536 409.066 51.912C409.546 51.272 410.234 50.776 411.13 50.424C412.042 50.072 413.114 49.896 414.346 49.896C415.258 49.896 416.162 50 417.058 50.208C417.97 50.4 418.722 50.672 419.314 51.024L418.066 53.688C416.93 53.048 415.69 52.728 414.346 52.728C413.546 52.728 412.946 52.84 412.546 53.064C412.146 53.288 411.946 53.576 411.946 53.928C411.946 54.328 412.162 54.608 412.594 54.768C413.026 54.928 413.714 55.08 414.658 55.224C415.714 55.4 416.578 55.592 417.25 55.8C417.922 55.992 418.506 56.352 419.002 56.88C419.498 57.408 419.746 58.144 419.746 59.088C419.746 59.888 419.506 60.6 419.026 61.224C418.546 61.848 417.842 62.336 416.914 62.688C416.002 63.024 414.914 63.192 413.65 63.192ZM430.384 62.376C430.016 62.648 429.56 62.856 429.016 63C428.488 63.128 427.928 63.192 427.336 63.192C425.8 63.192 424.608 62.8 423.76 62.016C422.928 61.232 422.512 60.08 422.512 58.56V53.256H420.52V50.376H422.512V47.232H426.256V50.376H429.472V53.256H426.256V58.512C426.256 59.056 426.392 59.48 426.664 59.784C426.952 60.072 427.352 60.216 427.864 60.216C428.456 60.216 428.96 60.056 429.376 59.736L430.384 62.376ZM438.231 63.192C436.871 63.192 435.647 62.912 434.559 62.352C433.487 61.776 432.647 60.984 432.039 59.976C431.431 58.968 431.127 57.824 431.127 56.544C431.127 55.264 431.431 54.12 432.039 53.112C432.647 52.104 433.487 51.32 434.559 50.76C435.647 50.184 436.871 49.896 438.231 49.896C439.591 49.896 440.807 50.184 441.879 50.76C442.951 51.32 443.791 52.104 444.399 53.112C445.007 54.12 445.311 55.264 445.311 56.544C445.311 57.824 445.007 58.968 444.399 59.976C443.791 60.984 442.951 61.776 441.879 62.352C440.807 62.912 439.591 63.192 438.231 63.192ZM438.231 60.12C439.191 60.12 439.975 59.8 440.583 59.16C441.207 58.504 441.519 57.632 441.519 56.544C441.519 55.456 441.207 54.592 440.583 53.952C439.975 53.296 439.191 52.968 438.231 52.968C437.271 52.968 436.479 53.296 435.855 53.952C435.231 54.592 434.919 55.456 434.919 56.544C434.919 57.632 435.231 58.504 435.855 59.16C436.479 59.8 437.271 60.12 438.231 60.12ZM455.662 49.896C457.262 49.896 458.55 50.376 459.526 51.336C460.518 52.296 461.014 53.72 461.014 55.608V63H457.27V56.184C457.27 55.16 457.046 54.4 456.598 53.904C456.15 53.392 455.502 53.136 454.654 53.136C453.71 53.136 452.958 53.432 452.398 54.024C451.838 54.6 451.558 55.464 451.558 56.616V63H447.814V50.088H451.39V51.6C451.886 51.056 452.502 50.64 453.238 50.352C453.974 50.048 454.782 49.896 455.662 49.896ZM482.805 56.712C482.805 56.888 482.789 57.12 482.757 57.408H472.437C472.581 58.528 473.069 59.432 473.901 60.12C474.749 60.792 475.797 61.128 477.045 61.128C478.565 61.128 479.789 60.616 480.717 59.592L481.989 61.08C481.413 61.752 480.693 62.264 479.829 62.616C478.981 62.968 478.029 63.144 476.973 63.144C475.629 63.144 474.437 62.872 473.397 62.328C472.357 61.768 471.549 60.992 470.973 60C470.413 59.008 470.133 57.888 470.133 56.64C470.133 55.408 470.405 54.296 470.949 53.304C471.509 52.312 472.269 51.544 473.229 51C474.205 50.44 475.301 50.16 476.517 50.16C477.733 50.16 478.813 50.44 479.757 51C480.717 51.544 481.461 52.312 481.989 53.304C482.533 54.296 482.805 55.432 482.805 56.712ZM476.517 52.104C475.413 52.104 474.485 52.44 473.733 53.112C472.997 53.784 472.565 54.664 472.437 55.752H480.597C480.469 54.68 480.029 53.808 479.277 53.136C478.541 52.448 477.621 52.104 476.517 52.104ZM498.004 45.192V63H495.796V60.984C495.284 61.688 494.636 62.224 493.852 62.592C493.068 62.96 492.204 63.144 491.26 63.144C490.028 63.144 488.924 62.872 487.948 62.328C486.972 61.784 486.204 61.024 485.644 60.048C485.1 59.056 484.828 57.92 484.828 56.64C484.828 55.36 485.1 54.232 485.644 53.256C486.204 52.28 486.972 51.52 487.948 50.976C488.924 50.432 490.028 50.16 491.26 50.16C492.172 50.16 493.012 50.336 493.78 50.688C494.548 51.024 495.188 51.528 495.7 52.2V45.192H498.004ZM491.452 61.128C492.252 61.128 492.98 60.944 493.636 60.576C494.292 60.192 494.804 59.664 495.172 58.992C495.54 58.304 495.724 57.52 495.724 56.64C495.724 55.76 495.54 54.984 495.172 54.312C494.804 53.624 494.292 53.096 493.636 52.728C492.98 52.36 492.252 52.176 491.452 52.176C490.636 52.176 489.9 52.36 489.244 52.728C488.604 53.096 488.092 53.624 487.708 54.312C487.34 54.984 487.156 55.76 487.156 56.64C487.156 57.52 487.34 58.304 487.708 58.992C488.092 59.664 488.604 60.192 489.244 60.576C489.9 60.944 490.636 61.128 491.452 61.128ZM502.364 50.28H504.668V63H502.364V50.28ZM503.516 47.832C503.068 47.832 502.692 47.688 502.388 47.4C502.1 47.112 501.956 46.76 501.956 46.344C501.956 45.928 502.1 45.576 502.388 45.288C502.692 44.984 503.068 44.832 503.516 44.832C503.964 44.832 504.332 44.976 504.62 45.264C504.924 45.536 505.076 45.88 505.076 46.296C505.076 46.728 504.924 47.096 504.62 47.4C504.332 47.688 503.964 47.832 503.516 47.832ZM516.219 62.256C515.883 62.544 515.467 62.768 514.971 62.928C514.475 63.072 513.963 63.144 513.435 63.144C512.155 63.144 511.163 62.8 510.459 62.112C509.755 61.424 509.403 60.44 509.403 59.16V52.176H507.243V50.28H509.403V47.496H511.707V50.28H515.355V52.176H511.707V59.064C511.707 59.752 511.875 60.28 512.211 60.648C512.563 61.016 513.059 61.2 513.699 61.2C514.403 61.2 515.003 61 515.499 60.6L516.219 62.256ZM524.03 63.144C522.766 63.144 521.63 62.864 520.622 62.304C519.614 61.744 518.822 60.976 518.246 60C517.686 59.008 517.406 57.888 517.406 56.64C517.406 55.392 517.686 54.28 518.246 53.304C518.822 52.312 519.614 51.544 520.622 51C521.63 50.44 522.766 50.16 524.03 50.16C525.294 50.16 526.422 50.44 527.414 51C528.422 51.544 529.206 52.312 529.766 53.304C530.342 54.28 530.63 55.392 530.63 56.64C530.63 57.888 530.342 59.008 529.766 60C529.206 60.976 528.422 61.744 527.414 62.304C526.422 62.864 525.294 63.144 524.03 63.144ZM524.03 61.128C524.846 61.128 525.574 60.944 526.214 60.576C526.87 60.192 527.382 59.664 527.75 58.992C528.118 58.304 528.302 57.52 528.302 56.64C528.302 55.76 528.118 54.984 527.75 54.312C527.382 53.624 526.87 53.096 526.214 52.728C525.574 52.36 524.846 52.176 524.03 52.176C523.214 52.176 522.478 52.36 521.822 52.728C521.182 53.096 520.67 53.624 520.286 54.312C519.918 54.984 519.734 55.76 519.734 56.64C519.734 57.52 519.918 58.304 520.286 58.992C520.67 59.664 521.182 60.192 521.822 60.576C522.478 60.944 523.214 61.128 524.03 61.128ZM540.609 50.16C542.225 50.16 543.505 50.632 544.449 51.576C545.409 52.504 545.889 53.872 545.889 55.68V63H543.585V55.944C543.585 54.712 543.289 53.784 542.697 53.16C542.105 52.536 541.257 52.224 540.153 52.224C538.905 52.224 537.921 52.592 537.201 53.328C536.481 54.048 536.121 55.088 536.121 56.448V63H533.817V50.28H536.025V52.2C536.489 51.544 537.113 51.04 537.897 50.688C538.697 50.336 539.601 50.16 540.609 50.16Z" fill="#FFB100"/>
<path d="M237.116 89.9H232.566L231.698 92H229.374L233.742 82.2H235.982L240.364 92H237.984L237.116 89.9ZM236.402 88.178L234.848 84.426L233.294 88.178H236.402ZM245.53 92.168C244.13 92.168 243.038 91.7807 242.254 91.006C241.479 90.2313 241.092 89.1253 241.092 87.688V82.2H243.36V87.604C243.36 89.3587 244.088 90.236 245.544 90.236C246.253 90.236 246.794 90.026 247.168 89.606C247.541 89.1767 247.728 88.5093 247.728 87.604V82.2H249.968V87.688C249.968 89.1253 249.576 90.2313 248.792 91.006C248.017 91.7807 246.93 92.168 245.53 92.168ZM258.831 86.946H260.903V90.922C260.371 91.3233 259.755 91.6313 259.055 91.846C258.355 92.0607 257.65 92.168 256.941 92.168C255.924 92.168 255.009 91.9533 254.197 91.524C253.385 91.0853 252.746 90.4833 252.279 89.718C251.822 88.9433 251.593 88.0707 251.593 87.1C251.593 86.1293 251.822 85.2613 252.279 84.496C252.746 83.7213 253.39 83.1193 254.211 82.69C255.032 82.2513 255.956 82.032 256.983 82.032C257.842 82.032 258.621 82.1767 259.321 82.466C260.021 82.7553 260.609 83.1753 261.085 83.726L259.629 85.07C258.929 84.3327 258.084 83.964 257.095 83.964C256.47 83.964 255.914 84.0947 255.429 84.356C254.944 84.6173 254.566 84.986 254.295 85.462C254.024 85.938 253.889 86.484 253.889 87.1C253.889 87.7067 254.024 88.248 254.295 88.724C254.566 89.2 254.939 89.5733 255.415 89.844C255.9 90.1053 256.451 90.236 257.067 90.236C257.72 90.236 258.308 90.096 258.831 89.816V86.946ZM267.364 92.168C265.964 92.168 264.872 91.7807 264.088 91.006C263.313 90.2313 262.926 89.1253 262.926 87.688V82.2H265.194V87.604C265.194 89.3587 265.922 90.236 267.378 90.236C268.087 90.236 268.628 90.026 269.002 89.606C269.375 89.1767 269.562 88.5093 269.562 87.604V82.2H271.802V87.688C271.802 89.1253 271.41 90.2313 270.626 91.006C269.851 91.7807 268.764 92.168 267.364 92.168ZM277.263 92.168C276.488 92.168 275.737 92.0653 275.009 91.86C274.29 91.6453 273.712 91.37 273.273 91.034L274.043 89.326C274.463 89.634 274.962 89.8813 275.541 90.068C276.12 90.2547 276.698 90.348 277.277 90.348C277.921 90.348 278.397 90.2547 278.705 90.068C279.013 89.872 279.167 89.6153 279.167 89.298C279.167 89.0647 279.074 88.8733 278.887 88.724C278.71 88.5653 278.476 88.4393 278.187 88.346C277.907 88.2527 277.524 88.15 277.039 88.038C276.292 87.8607 275.681 87.6833 275.205 87.506C274.729 87.3287 274.318 87.044 273.973 86.652C273.637 86.26 273.469 85.7373 273.469 85.084C273.469 84.5147 273.623 84.0013 273.931 83.544C274.239 83.0773 274.701 82.7087 275.317 82.438C275.942 82.1673 276.703 82.032 277.599 82.032C278.224 82.032 278.836 82.1067 279.433 82.256C280.03 82.4053 280.553 82.62 281.001 82.9L280.301 84.622C279.396 84.1087 278.49 83.852 277.585 83.852C276.95 83.852 276.479 83.9547 276.171 84.16C275.872 84.3653 275.723 84.636 275.723 84.972C275.723 85.308 275.896 85.56 276.241 85.728C276.596 85.8867 277.132 86.0453 277.851 86.204C278.598 86.3813 279.209 86.5587 279.685 86.736C280.161 86.9133 280.567 87.1933 280.903 87.576C281.248 87.9587 281.421 88.4767 281.421 89.13C281.421 89.69 281.262 90.2033 280.945 90.67C280.637 91.1273 280.17 91.4913 279.545 91.762C278.92 92.0327 278.159 92.168 277.263 92.168ZM284.864 84.048H281.728V82.2H290.268V84.048H287.132V92H284.864V84.048ZM298.197 85.882C299.578 85.882 300.596 86.1573 301.249 86.708C301.912 87.2587 302.243 87.996 302.243 88.92C302.243 89.5173 302.094 90.0633 301.795 90.558C301.496 91.0433 301.039 91.4353 300.423 91.734C299.816 92.0233 299.065 92.168 298.169 92.168C297.478 92.168 296.797 92.0793 296.125 91.902C295.462 91.7153 294.898 91.454 294.431 91.118L295.327 89.382C295.7 89.662 296.13 89.8813 296.615 90.04C297.1 90.1893 297.6 90.264 298.113 90.264C298.682 90.264 299.13 90.152 299.457 89.928C299.784 89.704 299.947 89.3913 299.947 88.99C299.947 88.57 299.774 88.2527 299.429 88.038C299.093 87.8233 298.505 87.716 297.665 87.716H295.159L295.663 82.2H301.641V84.02H297.553L297.399 85.882H298.197ZM305.672 84.048H302.536V82.2H311.076V84.048H307.94V92H305.672V84.048ZM321.285 82.2V92H319.017V87.982H314.565V92H312.297V82.2H314.565V86.064H319.017V82.2H321.285ZM327.134 87.184H331.096V88.934H327.134V87.184ZM343.023 86.848C343.509 87.0907 343.877 87.408 344.129 87.8C344.391 88.192 344.521 88.6447 344.521 89.158C344.521 89.7647 344.349 90.2967 344.003 90.754C343.658 91.202 343.173 91.552 342.547 91.804C341.922 92.0467 341.199 92.168 340.377 92.168C339.556 92.168 338.833 92.0467 338.207 91.804C337.591 91.552 337.111 91.202 336.765 90.754C336.429 90.2967 336.261 89.7647 336.261 89.158C336.261 88.6447 336.387 88.192 336.639 87.8C336.901 87.408 337.269 87.0907 337.745 86.848C337.381 86.624 337.101 86.344 336.905 86.008C336.709 85.6627 336.611 85.2707 336.611 84.832C336.611 84.2627 336.77 83.768 337.087 83.348C337.405 82.928 337.848 82.606 338.417 82.382C338.987 82.1487 339.64 82.032 340.377 82.032C341.124 82.032 341.782 82.1487 342.351 82.382C342.93 82.606 343.378 82.928 343.695 83.348C344.013 83.768 344.171 84.2627 344.171 84.832C344.171 85.2707 344.073 85.6627 343.877 86.008C343.681 86.344 343.397 86.624 343.023 86.848ZM340.377 83.698C339.92 83.698 339.551 83.81 339.271 84.034C339.001 84.2487 338.865 84.5473 338.865 84.93C338.865 85.3033 339.001 85.5973 339.271 85.812C339.542 86.0267 339.911 86.134 340.377 86.134C340.844 86.134 341.217 86.0267 341.497 85.812C341.777 85.5973 341.917 85.3033 341.917 84.93C341.917 84.5473 341.777 84.2487 341.497 84.034C341.217 83.81 340.844 83.698 340.377 83.698ZM340.377 90.502C340.947 90.502 341.395 90.376 341.721 90.124C342.057 89.8627 342.225 89.5173 342.225 89.088C342.225 88.6587 342.057 88.318 341.721 88.066C341.395 87.814 340.947 87.688 340.377 87.688C339.817 87.688 339.374 87.814 339.047 88.066C338.721 88.318 338.557 88.6587 338.557 89.088C338.557 89.5267 338.721 89.872 339.047 90.124C339.374 90.376 339.817 90.502 340.377 90.502ZM348.069 84.048H344.933V82.2H353.473V84.048H350.337V92H348.069V84.048ZM363.681 82.2V92H361.413V87.982H356.961V92H354.693V82.2H356.961V86.064H361.413V82.2H363.681Z" fill="#FB2222"/>
<path d="M415.858 85.904C416.418 86.0813 416.857 86.38 417.174 86.8C417.491 87.2107 417.65 87.7193 417.65 88.326C417.65 89.1847 417.314 89.8473 416.642 90.314C415.979 90.7713 415.009 91 413.73 91H408.662V81.2H413.45C414.645 81.2 415.559 81.4287 416.194 81.886C416.838 82.3433 417.16 82.964 417.16 83.748C417.16 84.224 417.043 84.6487 416.81 85.022C416.586 85.3953 416.269 85.6893 415.858 85.904ZM410.916 82.908V85.218H413.17C413.73 85.218 414.155 85.12 414.444 84.924C414.733 84.728 414.878 84.4387 414.878 84.056C414.878 83.6733 414.733 83.3887 414.444 83.202C414.155 83.006 413.73 82.908 413.17 82.908H410.916ZM413.562 89.292C414.159 89.292 414.607 89.194 414.906 88.998C415.214 88.802 415.368 88.4987 415.368 88.088C415.368 87.276 414.766 86.87 413.562 86.87H410.916V89.292H413.562ZM424.113 91.168C423.096 91.168 422.176 90.9487 421.355 90.51C420.543 90.0713 419.904 89.4693 419.437 88.704C418.98 87.9293 418.751 87.0613 418.751 86.1C418.751 85.1387 418.98 84.2753 419.437 83.51C419.904 82.7353 420.543 82.1287 421.355 81.69C422.176 81.2513 423.096 81.032 424.113 81.032C425.13 81.032 426.045 81.2513 426.857 81.69C427.669 82.1287 428.308 82.7353 428.775 83.51C429.242 84.2753 429.475 85.1387 429.475 86.1C429.475 87.0613 429.242 87.9293 428.775 88.704C428.308 89.4693 427.669 90.0713 426.857 90.51C426.045 90.9487 425.13 91.168 424.113 91.168ZM424.113 89.236C424.692 89.236 425.214 89.1053 425.681 88.844C426.148 88.5733 426.512 88.2 426.773 87.724C427.044 87.248 427.179 86.7067 427.179 86.1C427.179 85.4933 427.044 84.952 426.773 84.476C426.512 84 426.148 83.6313 425.681 83.37C425.214 83.0993 424.692 82.964 424.113 82.964C423.534 82.964 423.012 83.0993 422.545 83.37C422.078 83.6313 421.71 84 421.439 84.476C421.178 84.952 421.047 85.4933 421.047 86.1C421.047 86.7067 421.178 87.248 421.439 87.724C421.71 88.2 422.078 88.5733 422.545 88.844C423.012 89.1053 423.534 89.236 424.113 89.236ZM434.4 91.168C433.625 91.168 432.874 91.0653 432.146 90.86C431.427 90.6453 430.848 90.37 430.41 90.034L431.18 88.326C431.6 88.634 432.099 88.8813 432.678 89.068C433.256 89.2547 433.835 89.348 434.414 89.348C435.058 89.348 435.534 89.2547 435.842 89.068C436.15 88.872 436.304 88.6153 436.304 88.298C436.304 88.0647 436.21 87.8733 436.024 87.724C435.846 87.5653 435.613 87.4393 435.324 87.346C435.044 87.2527 434.661 87.15 434.176 87.038C433.429 86.8607 432.818 86.6833 432.342 86.506C431.866 86.3287 431.455 86.044 431.11 85.652C430.774 85.26 430.606 84.7373 430.606 84.084C430.606 83.5147 430.76 83.0013 431.068 82.544C431.376 82.0773 431.838 81.7087 432.454 81.438C433.079 81.1673 433.84 81.032 434.736 81.032C435.361 81.032 435.972 81.1067 436.57 81.256C437.167 81.4053 437.69 81.62 438.138 81.9L437.438 83.622C436.532 83.1087 435.627 82.852 434.722 82.852C434.087 82.852 433.616 82.9547 433.308 83.16C433.009 83.3653 432.86 83.636 432.86 83.972C432.86 84.308 433.032 84.56 433.378 84.728C433.732 84.8867 434.269 85.0453 434.988 85.204C435.734 85.3813 436.346 85.5587 436.822 85.736C437.298 85.9133 437.704 86.1933 438.04 86.576C438.385 86.9587 438.558 87.4767 438.558 88.13C438.558 88.69 438.399 89.2033 438.082 89.67C437.774 90.1273 437.307 90.4913 436.682 90.762C436.056 91.0327 435.296 91.168 434.4 91.168ZM442.001 83.048H438.865V81.2H447.405V83.048H444.269V91H442.001V83.048ZM453.234 91.168C452.217 91.168 451.298 90.9487 450.476 90.51C449.664 90.0713 449.025 89.4693 448.558 88.704C448.101 87.9293 447.872 87.0613 447.872 86.1C447.872 85.1387 448.101 84.2753 448.558 83.51C449.025 82.7353 449.664 82.1287 450.476 81.69C451.298 81.2513 452.217 81.032 453.234 81.032C454.252 81.032 455.166 81.2513 455.978 81.69C456.79 82.1287 457.43 82.7353 457.896 83.51C458.363 84.2753 458.596 85.1387 458.596 86.1C458.596 87.0613 458.363 87.9293 457.896 88.704C457.43 89.4693 456.79 90.0713 455.978 90.51C455.166 90.9487 454.252 91.168 453.234 91.168ZM453.234 89.236C453.813 89.236 454.336 89.1053 454.802 88.844C455.269 88.5733 455.633 88.2 455.894 87.724C456.165 87.248 456.3 86.7067 456.3 86.1C456.3 85.4933 456.165 84.952 455.894 84.476C455.633 84 455.269 83.6313 454.802 83.37C454.336 83.0993 453.813 82.964 453.234 82.964C452.656 82.964 452.133 83.0993 451.666 83.37C451.2 83.6313 450.831 84 450.56 84.476C450.299 84.952 450.168 85.4933 450.168 86.1C450.168 86.7067 450.299 87.248 450.56 87.724C450.831 88.2 451.2 88.5733 451.666 88.844C452.133 89.1053 452.656 89.236 453.234 89.236ZM469.289 81.2V91H467.427L462.541 85.05V91H460.301V81.2H462.177L467.049 87.15V81.2H469.289ZM479.814 81.2C480.682 81.2 481.433 81.3447 482.068 81.634C482.712 81.9233 483.207 82.334 483.552 82.866C483.897 83.398 484.07 84.028 484.07 84.756C484.07 85.4747 483.897 86.1047 483.552 86.646C483.207 87.178 482.712 87.5887 482.068 87.878C481.433 88.158 480.682 88.298 479.814 88.298H477.84V91H475.572V81.2H479.814ZM479.688 86.45C480.369 86.45 480.887 86.3053 481.242 86.016C481.597 85.7173 481.774 85.2973 481.774 84.756C481.774 84.2053 481.597 83.7853 481.242 83.496C480.887 83.1973 480.369 83.048 479.688 83.048H477.84V86.45H479.688ZM490.002 91.168C488.602 91.168 487.51 90.7807 486.726 90.006C485.952 89.2313 485.564 88.1253 485.564 86.688V81.2H487.832V86.604C487.832 88.3587 488.56 89.236 490.016 89.236C490.726 89.236 491.267 89.026 491.64 88.606C492.014 88.1767 492.2 87.5093 492.2 86.604V81.2H494.44V86.688C494.44 88.1253 494.048 89.2313 493.264 90.006C492.49 90.7807 491.402 91.168 490.002 91.168ZM503.878 85.904C504.438 86.0813 504.876 86.38 505.194 86.8C505.511 87.2107 505.67 87.7193 505.67 88.326C505.67 89.1847 505.334 89.8473 504.662 90.314C503.999 90.7713 503.028 91 501.75 91H496.682V81.2H501.47C502.664 81.2 503.579 81.4287 504.214 81.886C504.858 82.3433 505.18 82.964 505.18 83.748C505.18 84.224 505.063 84.6487 504.83 85.022C504.606 85.3953 504.288 85.6893 503.878 85.904ZM498.936 82.908V85.218H501.19C501.75 85.218 502.174 85.12 502.464 84.924C502.753 84.728 502.898 84.4387 502.898 84.056C502.898 83.6733 502.753 83.3887 502.464 83.202C502.174 83.006 501.75 82.908 501.19 82.908H498.936ZM501.582 89.292C502.179 89.292 502.627 89.194 502.926 88.998C503.234 88.802 503.388 88.4987 503.388 88.088C503.388 87.276 502.786 86.87 501.582 86.87H498.936V89.292H501.582ZM507.387 81.2H509.655V89.152H514.569V91H507.387V81.2ZM515.836 81.2H518.104V91H515.836V81.2ZM525.12 91.168C524.121 91.168 523.216 90.9533 522.404 90.524C521.601 90.0853 520.966 89.4833 520.5 88.718C520.042 87.9433 519.814 87.0707 519.814 86.1C519.814 85.1293 520.042 84.2613 520.5 83.496C520.966 82.7213 521.601 82.1193 522.404 81.69C523.216 81.2513 524.126 81.032 525.134 81.032C525.983 81.032 526.748 81.1813 527.43 81.48C528.12 81.7787 528.699 82.208 529.166 82.768L527.71 84.112C527.047 83.3467 526.226 82.964 525.246 82.964C524.639 82.964 524.098 83.0993 523.622 83.37C523.146 83.6313 522.772 84 522.502 84.476C522.24 84.952 522.11 85.4933 522.11 86.1C522.11 86.7067 522.24 87.248 522.502 87.724C522.772 88.2 523.146 88.5733 523.622 88.844C524.098 89.1053 524.639 89.236 525.246 89.236C526.226 89.236 527.047 88.8487 527.71 88.074L529.166 89.418C528.699 89.9873 528.12 90.4213 527.43 90.72C526.739 91.0187 525.969 91.168 525.12 91.168ZM541.284 85.946H543.356V89.922C542.824 90.3233 542.208 90.6313 541.508 90.846C540.808 91.0607 540.103 91.168 539.394 91.168C538.377 91.168 537.462 90.9533 536.65 90.524C535.838 90.0853 535.199 89.4833 534.732 88.718C534.275 87.9433 534.046 87.0707 534.046 86.1C534.046 85.1293 534.275 84.2613 534.732 83.496C535.199 82.7213 535.843 82.1193 536.664 81.69C537.485 81.2513 538.409 81.032 539.436 81.032C540.295 81.032 541.074 81.1767 541.774 81.466C542.474 81.7553 543.062 82.1753 543.538 82.726L542.082 84.07C541.382 83.3327 540.537 82.964 539.548 82.964C538.923 82.964 538.367 83.0947 537.882 83.356C537.397 83.6173 537.019 83.986 536.748 84.462C536.477 84.938 536.342 85.484 536.342 86.1C536.342 86.7067 536.477 87.248 536.748 87.724C537.019 88.2 537.392 88.5733 537.868 88.844C538.353 89.1053 538.904 89.236 539.52 89.236C540.173 89.236 540.761 89.096 541.284 88.816V85.946ZM551.917 88.9H547.367L546.499 91H544.175L548.543 81.2H550.783L555.165 91H552.785L551.917 88.9ZM551.203 87.178L549.649 83.426L548.095 87.178H551.203ZM562.426 91L560.536 88.27H560.424H558.45V91H556.182V81.2H560.424C561.292 81.2 562.043 81.3447 562.678 81.634C563.322 81.9233 563.816 82.334 564.162 82.866C564.507 83.398 564.68 84.028 564.68 84.756C564.68 85.484 564.502 86.114 564.148 86.646C563.802 87.1687 563.308 87.57 562.664 87.85L564.862 91H562.426ZM562.384 84.756C562.384 84.2053 562.206 83.7853 561.852 83.496C561.497 83.1973 560.979 83.048 560.298 83.048H558.45V86.464H560.298C560.979 86.464 561.497 86.3147 561.852 86.016C562.206 85.7173 562.384 85.2973 562.384 84.756ZM566.476 81.2H570.928C571.992 81.2 572.93 81.4053 573.742 81.816C574.564 82.2173 575.198 82.7867 575.646 83.524C576.104 84.2613 576.332 85.12 576.332 86.1C576.332 87.08 576.104 87.9387 575.646 88.676C575.198 89.4133 574.564 89.9873 573.742 90.398C572.93 90.7993 571.992 91 570.928 91H566.476V81.2ZM570.816 89.138C571.796 89.138 572.576 88.8673 573.154 88.326C573.742 87.7753 574.036 87.0333 574.036 86.1C574.036 85.1667 573.742 84.4293 573.154 83.888C572.576 83.3373 571.796 83.062 570.816 83.062H568.744V89.138H570.816ZM585.631 89.18V91H578.043V81.2H585.449V83.02H580.297V85.148H584.847V86.912H580.297V89.18H585.631ZM596.423 81.2V91H594.561L589.675 85.05V91H587.435V81.2H589.311L594.183 87.15V81.2H596.423Z" fill="white"/>
<path d="M212 95.3334C216.602 95.3334 220.333 91.6024 220.333 87C220.333 82.3976 216.602 78.6667 212 78.6667C207.398 78.6667 203.667 82.3976 203.667 87C203.667 91.6024 207.398 95.3334 212 95.3334Z" stroke="#FFB100" stroke-width="2" stroke-linecap="round" stroke-linejoin="round"/>
<path d="M212 82V87L215.333 88.6667" stroke="#FFB100" stroke-width="2" stroke-linecap="round" stroke-linejoin="round"/>
<g clip-path="url(#clip0)">
<path d="M399.5 85.3333C399.5 91.1666 392 96.1666 392 96.1666C392 96.1666 384.5 91.1666 384.5 85.3333C384.5 83.3442 385.29 81.4365 386.697 80.03C388.103 78.6235 390.011 77.8333 392 77.8333C393.989 77.8333 395.897 78.6235 397.303 80.03C398.71 81.4365 399.5 83.3442 399.5 85.3333Z" stroke="#FFB100" stroke-width="2" stroke-linecap="round" stroke-linejoin="round"/>
<path d="M392 87.8333C393.381 87.8333 394.5 86.714 394.5 85.3333C394.5 83.9526 393.381 82.8333 392 82.8333C390.619 82.8333 389.5 83.9526 389.5 85.3333C389.5 86.714 390.619 87.8333 392 87.8333Z" stroke="#FFB100" stroke-width="2" stroke-linecap="round" stroke-linejoin="round"/>
</g>
<path d="M373.5 74V101" stroke="white" stroke-width="3"/>
<defs>
<clipPath id="clip0">
<rect width="20" height="20" fill="white" transform="translate(382 77)"/>
</clipPath>
</defs>
</svg>
