<svg width="1440" height="130" viewBox="0 0 1440 130" fill="none" xmlns="http://www.w3.org/2000/svg">
<rect width="1440" height="130" fill="black"/>
<path d="M607.574 32.46L604.01 42H602.354L599.6 34.764L596.81 42H595.154L591.608 32.46H593.246L596.018 40.056L598.898 32.46H600.356L603.182 40.092L606.026 32.46H607.574ZM612.503 32.37C613.823 32.37 614.831 32.694 615.527 33.342C616.235 33.99 616.589 34.956 616.589 36.24V42H614.951V40.74C614.663 41.184 614.249 41.526 613.709 41.766C613.181 41.994 612.551 42.108 611.819 42.108C610.751 42.108 609.893 41.85 609.245 41.334C608.609 40.818 608.291 40.14 608.291 39.3C608.291 38.46 608.597 37.788 609.209 37.284C609.821 36.768 610.793 36.51 612.125 36.51H614.861V36.168C614.861 35.424 614.645 34.854 614.213 34.458C613.781 34.062 613.145 33.864 612.305 33.864C611.741 33.864 611.189 33.96 610.649 34.152C610.109 34.332 609.653 34.578 609.281 34.89L608.561 33.594C609.053 33.198 609.641 32.898 610.325 32.694C611.009 32.478 611.735 32.37 612.503 32.37ZM612.107 40.776C612.767 40.776 613.337 40.632 613.817 40.344C614.297 40.044 614.645 39.624 614.861 39.084V37.752H612.197C610.733 37.752 610.001 38.244 610.001 39.228C610.001 39.708 610.187 40.086 610.559 40.362C610.931 40.638 611.447 40.776 612.107 40.776ZM625.15 41.442C624.898 41.658 624.586 41.826 624.214 41.946C623.842 42.054 623.458 42.108 623.062 42.108C622.102 42.108 621.358 41.85 620.83 41.334C620.302 40.818 620.038 40.08 620.038 39.12V33.882H618.418V32.46H620.038V30.372H621.766V32.46H624.502V33.882H621.766V39.048C621.766 39.564 621.892 39.96 622.144 40.236C622.408 40.512 622.78 40.65 623.26 40.65C623.788 40.65 624.238 40.5 624.61 40.2L625.15 41.442ZM631.081 42.108C630.109 42.108 629.239 41.898 628.471 41.478C627.715 41.058 627.121 40.482 626.689 39.75C626.257 39.006 626.041 38.166 626.041 37.23C626.041 36.294 626.257 35.46 626.689 34.728C627.121 33.984 627.715 33.408 628.471 33C629.239 32.58 630.109 32.37 631.081 32.37C631.945 32.37 632.713 32.544 633.385 32.892C634.069 33.24 634.597 33.744 634.969 34.404L633.655 35.25C633.355 34.794 632.983 34.452 632.539 34.224C632.095 33.996 631.603 33.882 631.063 33.882C630.439 33.882 629.875 34.02 629.371 34.296C628.879 34.572 628.489 34.968 628.201 35.484C627.925 35.988 627.787 36.57 627.787 37.23C627.787 37.902 627.925 38.496 628.201 39.012C628.489 39.516 628.879 39.906 629.371 40.182C629.875 40.458 630.439 40.596 631.063 40.596C631.603 40.596 632.095 40.482 632.539 40.254C632.983 40.026 633.355 39.684 633.655 39.228L634.969 40.056C634.597 40.716 634.069 41.226 633.385 41.586C632.713 41.934 631.945 42.108 631.081 42.108ZM642.177 32.37C643.389 32.37 644.349 32.724 645.057 33.432C645.777 34.128 646.137 35.154 646.137 36.51V42H644.409V36.708C644.409 35.784 644.187 35.088 643.743 34.62C643.299 34.152 642.663 33.918 641.835 33.918C640.899 33.918 640.161 34.194 639.621 34.746C639.081 35.286 638.811 36.066 638.811 37.086V42H637.083V28.644H638.811V33.81C639.171 33.354 639.639 33 640.215 32.748C640.803 32.496 641.457 32.37 642.177 32.37ZM649.101 29.4H651.135L650.793 38.022H649.425L649.101 29.4ZM650.127 42.108C649.791 42.108 649.509 42 649.281 41.784C649.053 41.556 648.939 41.28 648.939 40.956C648.939 40.632 649.053 40.362 649.281 40.146C649.509 39.918 649.791 39.804 650.127 39.804C650.463 39.804 650.739 39.918 650.955 40.146C651.171 40.362 651.279 40.632 651.279 40.956C651.279 41.28 651.165 41.556 650.937 41.784C650.721 42 650.451 42.108 650.127 42.108ZM657.257 30.966H652.937V29.4H663.359V30.966H659.039V42H657.257V30.966ZM599.372 63.192C598.012 63.192 596.788 62.912 595.7 62.352C594.628 61.776 593.788 60.984 593.18 59.976C592.572 58.968 592.268 57.824 592.268 56.544C592.268 55.264 592.572 54.12 593.18 53.112C593.788 52.104 594.628 51.32 595.7 50.76C596.788 50.184 598.012 49.896 599.372 49.896C600.732 49.896 601.948 50.184 603.02 50.76C604.092 51.32 604.932 52.104 605.54 53.112C606.148 54.12 606.452 55.264 606.452 56.544C606.452 57.824 606.148 58.968 605.54 59.976C604.932 60.984 604.092 61.776 603.02 62.352C601.948 62.912 600.732 63.192 599.372 63.192ZM599.372 60.12C600.332 60.12 601.116 59.8 601.724 59.16C602.348 58.504 602.66 57.632 602.66 56.544C602.66 55.456 602.348 54.592 601.724 53.952C601.116 53.296 600.332 52.968 599.372 52.968C598.412 52.968 597.62 53.296 596.996 53.952C596.372 54.592 596.06 55.456 596.06 56.544C596.06 57.632 596.372 58.504 596.996 59.16C597.62 59.8 598.412 60.12 599.372 60.12ZM621.963 50.088V63H618.411V61.464C617.915 62.024 617.323 62.456 616.635 62.76C615.947 63.048 615.203 63.192 614.403 63.192C612.707 63.192 611.363 62.704 610.371 61.728C609.379 60.752 608.883 59.304 608.883 57.384V50.088H612.627V56.832C612.627 58.912 613.499 59.952 615.243 59.952C616.139 59.952 616.859 59.664 617.403 59.088C617.947 58.496 618.219 57.624 618.219 56.472V50.088H621.963ZM633.759 62.376C633.391 62.648 632.935 62.856 632.391 63C631.863 63.128 631.303 63.192 630.711 63.192C629.175 63.192 627.983 62.8 627.135 62.016C626.303 61.232 625.887 60.08 625.887 58.56V53.256H623.895V50.376H625.887V47.232H629.631V50.376H632.847V53.256H629.631V58.512C629.631 59.056 629.767 59.48 630.039 59.784C630.327 60.072 630.727 60.216 631.239 60.216C631.831 60.216 632.335 60.056 632.751 59.736L633.759 62.376ZM640.205 63.192C639.133 63.192 638.085 63.064 637.061 62.808C636.037 62.536 635.221 62.2 634.613 61.8L635.861 59.112C636.437 59.48 637.133 59.784 637.949 60.024C638.765 60.248 639.565 60.36 640.349 60.36C641.933 60.36 642.725 59.968 642.725 59.184C642.725 58.816 642.509 58.552 642.077 58.392C641.645 58.232 640.981 58.096 640.085 57.984C639.029 57.824 638.157 57.64 637.469 57.432C636.781 57.224 636.181 56.856 635.669 56.328C635.173 55.8 634.925 55.048 634.925 54.072C634.925 53.256 635.157 52.536 635.621 51.912C636.101 51.272 636.789 50.776 637.685 50.424C638.597 50.072 639.669 49.896 640.901 49.896C641.813 49.896 642.717 50 643.613 50.208C644.525 50.4 645.277 50.672 645.869 51.024L644.621 53.688C643.485 53.048 642.245 52.728 640.901 52.728C640.101 52.728 639.501 52.84 639.101 53.064C638.701 53.288 638.501 53.576 638.501 53.928C638.501 54.328 638.717 54.608 639.149 54.768C639.581 54.928 640.269 55.08 641.213 55.224C642.269 55.4 643.133 55.592 643.805 55.8C644.477 55.992 645.061 56.352 645.557 56.88C646.053 57.408 646.301 58.144 646.301 59.088C646.301 59.888 646.061 60.6 645.581 61.224C645.101 61.848 644.397 62.336 643.469 62.688C642.557 63.024 641.469 63.192 640.205 63.192ZM648.611 50.088H652.355V63H648.611V50.088ZM650.483 48.288C649.795 48.288 649.235 48.088 648.803 47.688C648.371 47.288 648.155 46.792 648.155 46.2C648.155 45.608 648.371 45.112 648.803 44.712C649.235 44.312 649.795 44.112 650.483 44.112C651.171 44.112 651.731 44.304 652.163 44.688C652.595 45.072 652.811 45.552 652.811 46.128C652.811 46.752 652.595 47.272 652.163 47.688C651.731 48.088 651.171 48.288 650.483 48.288ZM668.982 45.192V63H665.406V61.512C664.478 62.632 663.134 63.192 661.374 63.192C660.158 63.192 659.054 62.92 658.062 62.376C657.086 61.832 656.318 61.056 655.758 60.048C655.198 59.04 654.918 57.872 654.918 56.544C654.918 55.216 655.198 54.048 655.758 53.04C656.318 52.032 657.086 51.256 658.062 50.712C659.054 50.168 660.158 49.896 661.374 49.896C663.022 49.896 664.31 50.416 665.238 51.456V45.192H668.982ZM662.022 60.12C662.966 60.12 663.75 59.8 664.374 59.16C664.998 58.504 665.31 57.632 665.31 56.544C665.31 55.456 664.998 54.592 664.374 53.952C663.75 53.296 662.966 52.968 662.022 52.968C661.062 52.968 660.27 53.296 659.646 53.952C659.022 54.592 658.71 55.456 658.71 56.544C658.71 57.632 659.022 58.504 659.646 59.16C660.27 59.8 661.062 60.12 662.022 60.12ZM685.095 56.592C685.095 56.64 685.071 56.976 685.023 57.6H675.255C675.431 58.4 675.847 59.032 676.503 59.496C677.159 59.96 677.975 60.192 678.951 60.192C679.623 60.192 680.215 60.096 680.727 59.904C681.255 59.696 681.743 59.376 682.191 58.944L684.183 61.104C682.967 62.496 681.191 63.192 678.855 63.192C677.399 63.192 676.111 62.912 674.991 62.352C673.871 61.776 673.007 60.984 672.399 59.976C671.791 58.968 671.487 57.824 671.487 56.544C671.487 55.28 671.783 54.144 672.375 53.136C672.983 52.112 673.807 51.32 674.847 50.76C675.903 50.184 677.079 49.896 678.375 49.896C679.639 49.896 680.783 50.168 681.807 50.712C682.831 51.256 683.631 52.04 684.207 53.064C684.799 54.072 685.095 55.248 685.095 56.592ZM678.399 52.728C677.551 52.728 676.839 52.968 676.263 53.448C675.687 53.928 675.335 54.584 675.207 55.416H681.567C681.439 54.6 681.087 53.952 680.511 53.472C679.935 52.976 679.231 52.728 678.399 52.728Z" fill="white"/>
<path d="M707.828 54.264C708.788 54.568 709.54 55.08 710.084 55.8C710.628 56.504 710.9 57.376 710.9 58.416C710.9 59.888 710.324 61.024 709.172 61.824C708.036 62.608 706.372 63 704.18 63H695.492V46.2H703.7C705.748 46.2 707.316 46.592 708.404 47.376C709.508 48.16 710.06 49.224 710.06 50.568C710.06 51.384 709.86 52.112 709.46 52.752C709.076 53.392 708.532 53.896 707.828 54.264ZM699.356 49.128V53.088H703.22C704.18 53.088 704.908 52.92 705.404 52.584C705.9 52.248 706.148 51.752 706.148 51.096C706.148 50.44 705.9 49.952 705.404 49.632C704.908 49.296 704.18 49.128 703.22 49.128H699.356ZM703.892 60.072C704.916 60.072 705.684 59.904 706.196 59.568C706.724 59.232 706.988 58.712 706.988 58.008C706.988 56.616 705.956 55.92 703.892 55.92H699.356V60.072H703.892ZM719.724 63.192C718.364 63.192 717.14 62.912 716.052 62.352C714.98 61.776 714.14 60.984 713.532 59.976C712.924 58.968 712.62 57.824 712.62 56.544C712.62 55.264 712.924 54.12 713.532 53.112C714.14 52.104 714.98 51.32 716.052 50.76C717.14 50.184 718.364 49.896 719.724 49.896C721.084 49.896 722.3 50.184 723.372 50.76C724.444 51.32 725.284 52.104 725.892 53.112C726.5 54.12 726.804 55.264 726.804 56.544C726.804 57.824 726.5 58.968 725.892 59.976C725.284 60.984 724.444 61.776 723.372 62.352C722.3 62.912 721.084 63.192 719.724 63.192ZM719.724 60.12C720.684 60.12 721.468 59.8 722.076 59.16C722.7 58.504 723.012 57.632 723.012 56.544C723.012 55.456 722.7 54.592 722.076 53.952C721.468 53.296 720.684 52.968 719.724 52.968C718.764 52.968 717.972 53.296 717.348 53.952C716.724 54.592 716.412 55.456 716.412 56.544C716.412 57.632 716.724 58.504 717.348 59.16C717.972 59.8 718.764 60.12 719.724 60.12ZM733.65 63.192C732.578 63.192 731.53 63.064 730.506 62.808C729.482 62.536 728.666 62.2 728.058 61.8L729.306 59.112C729.882 59.48 730.578 59.784 731.394 60.024C732.21 60.248 733.01 60.36 733.794 60.36C735.378 60.36 736.17 59.968 736.17 59.184C736.17 58.816 735.954 58.552 735.522 58.392C735.09 58.232 734.426 58.096 733.53 57.984C732.474 57.824 731.602 57.64 730.914 57.432C730.226 57.224 729.626 56.856 729.114 56.328C728.618 55.8 728.37 55.048 728.37 54.072C728.37 53.256 728.602 52.536 729.066 51.912C729.546 51.272 730.234 50.776 731.13 50.424C732.042 50.072 733.114 49.896 734.346 49.896C735.258 49.896 736.162 50 737.058 50.208C737.97 50.4 738.722 50.672 739.314 51.024L738.066 53.688C736.93 53.048 735.69 52.728 734.346 52.728C733.546 52.728 732.946 52.84 732.546 53.064C732.146 53.288 731.946 53.576 731.946 53.928C731.946 54.328 732.162 54.608 732.594 54.768C733.026 54.928 733.714 55.08 734.658 55.224C735.714 55.4 736.578 55.592 737.25 55.8C737.922 55.992 738.506 56.352 739.002 56.88C739.498 57.408 739.746 58.144 739.746 59.088C739.746 59.888 739.506 60.6 739.026 61.224C738.546 61.848 737.842 62.336 736.914 62.688C736.002 63.024 734.914 63.192 733.65 63.192ZM750.384 62.376C750.016 62.648 749.56 62.856 749.016 63C748.488 63.128 747.928 63.192 747.336 63.192C745.8 63.192 744.608 62.8 743.76 62.016C742.928 61.232 742.512 60.08 742.512 58.56V53.256H740.52V50.376H742.512V47.232H746.256V50.376H749.472V53.256H746.256V58.512C746.256 59.056 746.392 59.48 746.664 59.784C746.952 60.072 747.352 60.216 747.864 60.216C748.456 60.216 748.96 60.056 749.376 59.736L750.384 62.376ZM758.231 63.192C756.871 63.192 755.647 62.912 754.559 62.352C753.487 61.776 752.647 60.984 752.039 59.976C751.431 58.968 751.127 57.824 751.127 56.544C751.127 55.264 751.431 54.12 752.039 53.112C752.647 52.104 753.487 51.32 754.559 50.76C755.647 50.184 756.871 49.896 758.231 49.896C759.591 49.896 760.807 50.184 761.879 50.76C762.951 51.32 763.791 52.104 764.399 53.112C765.007 54.12 765.311 55.264 765.311 56.544C765.311 57.824 765.007 58.968 764.399 59.976C763.791 60.984 762.951 61.776 761.879 62.352C760.807 62.912 759.591 63.192 758.231 63.192ZM758.231 60.12C759.191 60.12 759.975 59.8 760.583 59.16C761.207 58.504 761.519 57.632 761.519 56.544C761.519 55.456 761.207 54.592 760.583 53.952C759.975 53.296 759.191 52.968 758.231 52.968C757.271 52.968 756.479 53.296 755.855 53.952C755.231 54.592 754.919 55.456 754.919 56.544C754.919 57.632 755.231 58.504 755.855 59.16C756.479 59.8 757.271 60.12 758.231 60.12ZM775.662 49.896C777.262 49.896 778.55 50.376 779.526 51.336C780.518 52.296 781.014 53.72 781.014 55.608V63H777.27V56.184C777.27 55.16 777.046 54.4 776.598 53.904C776.15 53.392 775.502 53.136 774.654 53.136C773.71 53.136 772.958 53.432 772.398 54.024C771.838 54.6 771.558 55.464 771.558 56.616V63H767.814V50.088H771.39V51.6C771.886 51.056 772.502 50.64 773.238 50.352C773.974 50.048 774.782 49.896 775.662 49.896ZM802.805 56.712C802.805 56.888 802.789 57.12 802.757 57.408H792.437C792.581 58.528 793.069 59.432 793.901 60.12C794.749 60.792 795.797 61.128 797.045 61.128C798.565 61.128 799.789 60.616 800.717 59.592L801.989 61.08C801.413 61.752 800.693 62.264 799.829 62.616C798.981 62.968 798.029 63.144 796.973 63.144C795.629 63.144 794.437 62.872 793.397 62.328C792.357 61.768 791.549 60.992 790.973 60C790.413 59.008 790.133 57.888 790.133 56.64C790.133 55.408 790.405 54.296 790.949 53.304C791.509 52.312 792.269 51.544 793.229 51C794.205 50.44 795.301 50.16 796.517 50.16C797.733 50.16 798.813 50.44 799.757 51C800.717 51.544 801.461 52.312 801.989 53.304C802.533 54.296 802.805 55.432 802.805 56.712ZM796.517 52.104C795.413 52.104 794.485 52.44 793.733 53.112C792.997 53.784 792.565 54.664 792.437 55.752H800.597C800.469 54.68 800.029 53.808 799.277 53.136C798.541 52.448 797.621 52.104 796.517 52.104ZM818.004 45.192V63H815.796V60.984C815.284 61.688 814.636 62.224 813.852 62.592C813.068 62.96 812.204 63.144 811.26 63.144C810.028 63.144 808.924 62.872 807.948 62.328C806.972 61.784 806.204 61.024 805.644 60.048C805.1 59.056 804.828 57.92 804.828 56.64C804.828 55.36 805.1 54.232 805.644 53.256C806.204 52.28 806.972 51.52 807.948 50.976C808.924 50.432 810.028 50.16 811.26 50.16C812.172 50.16 813.012 50.336 813.78 50.688C814.548 51.024 815.188 51.528 815.7 52.2V45.192H818.004ZM811.452 61.128C812.252 61.128 812.98 60.944 813.636 60.576C814.292 60.192 814.804 59.664 815.172 58.992C815.54 58.304 815.724 57.52 815.724 56.64C815.724 55.76 815.54 54.984 815.172 54.312C814.804 53.624 814.292 53.096 813.636 52.728C812.98 52.36 812.252 52.176 811.452 52.176C810.636 52.176 809.9 52.36 809.244 52.728C808.604 53.096 808.092 53.624 807.708 54.312C807.34 54.984 807.156 55.76 807.156 56.64C807.156 57.52 807.34 58.304 807.708 58.992C808.092 59.664 808.604 60.192 809.244 60.576C809.9 60.944 810.636 61.128 811.452 61.128ZM822.364 50.28H824.668V63H822.364V50.28ZM823.516 47.832C823.068 47.832 822.692 47.688 822.388 47.4C822.1 47.112 821.956 46.76 821.956 46.344C821.956 45.928 822.1 45.576 822.388 45.288C822.692 44.984 823.068 44.832 823.516 44.832C823.964 44.832 824.332 44.976 824.62 45.264C824.924 45.536 825.076 45.88 825.076 46.296C825.076 46.728 824.924 47.096 824.62 47.4C824.332 47.688 823.964 47.832 823.516 47.832ZM836.219 62.256C835.883 62.544 835.467 62.768 834.971 62.928C834.475 63.072 833.963 63.144 833.435 63.144C832.155 63.144 831.163 62.8 830.459 62.112C829.755 61.424 829.403 60.44 829.403 59.16V52.176H827.243V50.28H829.403V47.496H831.707V50.28H835.355V52.176H831.707V59.064C831.707 59.752 831.875 60.28 832.211 60.648C832.563 61.016 833.059 61.2 833.699 61.2C834.403 61.2 835.003 61 835.499 60.6L836.219 62.256ZM844.03 63.144C842.766 63.144 841.63 62.864 840.622 62.304C839.614 61.744 838.822 60.976 838.246 60C837.686 59.008 837.406 57.888 837.406 56.64C837.406 55.392 837.686 54.28 838.246 53.304C838.822 52.312 839.614 51.544 840.622 51C841.63 50.44 842.766 50.16 844.03 50.16C845.294 50.16 846.422 50.44 847.414 51C848.422 51.544 849.206 52.312 849.766 53.304C850.342 54.28 850.63 55.392 850.63 56.64C850.63 57.888 850.342 59.008 849.766 60C849.206 60.976 848.422 61.744 847.414 62.304C846.422 62.864 845.294 63.144 844.03 63.144ZM844.03 61.128C844.846 61.128 845.574 60.944 846.214 60.576C846.87 60.192 847.382 59.664 847.75 58.992C848.118 58.304 848.302 57.52 848.302 56.64C848.302 55.76 848.118 54.984 847.75 54.312C847.382 53.624 846.87 53.096 846.214 52.728C845.574 52.36 844.846 52.176 844.03 52.176C843.214 52.176 842.478 52.36 841.822 52.728C841.182 53.096 840.67 53.624 840.286 54.312C839.918 54.984 839.734 55.76 839.734 56.64C839.734 57.52 839.918 58.304 840.286 58.992C840.67 59.664 841.182 60.192 841.822 60.576C842.478 60.944 843.214 61.128 844.03 61.128ZM860.609 50.16C862.225 50.16 863.505 50.632 864.449 51.576C865.409 52.504 865.889 53.872 865.889 55.68V63H863.585V55.944C863.585 54.712 863.289 53.784 862.697 53.16C862.105 52.536 861.257 52.224 860.153 52.224C858.905 52.224 857.921 52.592 857.201 53.328C856.481 54.048 856.121 55.088 856.121 56.448V63H853.817V50.28H856.025V52.2C856.489 51.544 857.113 51.04 857.897 50.688C858.697 50.336 859.601 50.16 860.609 50.16Z" fill="#FFB100"/>
<path d="M557.116 89.9H552.566L551.698 92H549.374L553.742 82.2H555.982L560.364 92H557.984L557.116 89.9ZM556.402 88.178L554.848 84.426L553.294 88.178H556.402ZM565.53 92.168C564.13 92.168 563.038 91.7807 562.254 91.006C561.479 90.2313 561.092 89.1253 561.092 87.688V82.2H563.36V87.604C563.36 89.3587 564.088 90.236 565.544 90.236C566.253 90.236 566.794 90.026 567.168 89.606C567.541 89.1767 567.728 88.5093 567.728 87.604V82.2H569.968V87.688C569.968 89.1253 569.576 90.2313 568.792 91.006C568.017 91.7807 566.93 92.168 565.53 92.168ZM578.831 86.946H580.903V90.922C580.371 91.3233 579.755 91.6313 579.055 91.846C578.355 92.0607 577.65 92.168 576.941 92.168C575.924 92.168 575.009 91.9533 574.197 91.524C573.385 91.0853 572.746 90.4833 572.279 89.718C571.822 88.9433 571.593 88.0707 571.593 87.1C571.593 86.1293 571.822 85.2613 572.279 84.496C572.746 83.7213 573.39 83.1193 574.211 82.69C575.032 82.2513 575.956 82.032 576.983 82.032C577.842 82.032 578.621 82.1767 579.321 82.466C580.021 82.7553 580.609 83.1753 581.085 83.726L579.629 85.07C578.929 84.3327 578.084 83.964 577.095 83.964C576.47 83.964 575.914 84.0947 575.429 84.356C574.944 84.6173 574.566 84.986 574.295 85.462C574.024 85.938 573.889 86.484 573.889 87.1C573.889 87.7067 574.024 88.248 574.295 88.724C574.566 89.2 574.939 89.5733 575.415 89.844C575.9 90.1053 576.451 90.236 577.067 90.236C577.72 90.236 578.308 90.096 578.831 89.816V86.946ZM587.364 92.168C585.964 92.168 584.872 91.7807 584.088 91.006C583.313 90.2313 582.926 89.1253 582.926 87.688V82.2H585.194V87.604C585.194 89.3587 585.922 90.236 587.378 90.236C588.087 90.236 588.628 90.026 589.002 89.606C589.375 89.1767 589.562 88.5093 589.562 87.604V82.2H591.802V87.688C591.802 89.1253 591.41 90.2313 590.626 91.006C589.851 91.7807 588.764 92.168 587.364 92.168ZM597.263 92.168C596.488 92.168 595.737 92.0653 595.009 91.86C594.29 91.6453 593.712 91.37 593.273 91.034L594.043 89.326C594.463 89.634 594.962 89.8813 595.541 90.068C596.12 90.2547 596.698 90.348 597.277 90.348C597.921 90.348 598.397 90.2547 598.705 90.068C599.013 89.872 599.167 89.6153 599.167 89.298C599.167 89.0647 599.074 88.8733 598.887 88.724C598.71 88.5653 598.476 88.4393 598.187 88.346C597.907 88.2527 597.524 88.15 597.039 88.038C596.292 87.8607 595.681 87.6833 595.205 87.506C594.729 87.3287 594.318 87.044 593.973 86.652C593.637 86.26 593.469 85.7373 593.469 85.084C593.469 84.5147 593.623 84.0013 593.931 83.544C594.239 83.0773 594.701 82.7087 595.317 82.438C595.942 82.1673 596.703 82.032 597.599 82.032C598.224 82.032 598.836 82.1067 599.433 82.256C600.03 82.4053 600.553 82.62 601.001 82.9L600.301 84.622C599.396 84.1087 598.49 83.852 597.585 83.852C596.95 83.852 596.479 83.9547 596.171 84.16C595.872 84.3653 595.723 84.636 595.723 84.972C595.723 85.308 595.896 85.56 596.241 85.728C596.596 85.8867 597.132 86.0453 597.851 86.204C598.598 86.3813 599.209 86.5587 599.685 86.736C600.161 86.9133 600.567 87.1933 600.903 87.576C601.248 87.9587 601.421 88.4767 601.421 89.13C601.421 89.69 601.262 90.2033 600.945 90.67C600.637 91.1273 600.17 91.4913 599.545 91.762C598.92 92.0327 598.159 92.168 597.263 92.168ZM604.864 84.048H601.728V82.2H610.268V84.048H607.132V92H604.864V84.048ZM618.197 85.882C619.578 85.882 620.596 86.1573 621.249 86.708C621.912 87.2587 622.243 87.996 622.243 88.92C622.243 89.5173 622.094 90.0633 621.795 90.558C621.496 91.0433 621.039 91.4353 620.423 91.734C619.816 92.0233 619.065 92.168 618.169 92.168C617.478 92.168 616.797 92.0793 616.125 91.902C615.462 91.7153 614.898 91.454 614.431 91.118L615.327 89.382C615.7 89.662 616.13 89.8813 616.615 90.04C617.1 90.1893 617.6 90.264 618.113 90.264C618.682 90.264 619.13 90.152 619.457 89.928C619.784 89.704 619.947 89.3913 619.947 88.99C619.947 88.57 619.774 88.2527 619.429 88.038C619.093 87.8233 618.505 87.716 617.665 87.716H615.159L615.663 82.2H621.641V84.02H617.553L617.399 85.882H618.197ZM625.672 84.048H622.536V82.2H631.076V84.048H627.94V92H625.672V84.048ZM641.285 82.2V92H639.017V87.982H634.565V92H632.297V82.2H634.565V86.064H639.017V82.2H641.285ZM647.134 87.184H651.096V88.934H647.134V87.184ZM663.023 86.848C663.509 87.0907 663.877 87.408 664.129 87.8C664.391 88.192 664.521 88.6447 664.521 89.158C664.521 89.7647 664.349 90.2967 664.003 90.754C663.658 91.202 663.173 91.552 662.547 91.804C661.922 92.0467 661.199 92.168 660.377 92.168C659.556 92.168 658.833 92.0467 658.207 91.804C657.591 91.552 657.111 91.202 656.765 90.754C656.429 90.2967 656.261 89.7647 656.261 89.158C656.261 88.6447 656.387 88.192 656.639 87.8C656.901 87.408 657.269 87.0907 657.745 86.848C657.381 86.624 657.101 86.344 656.905 86.008C656.709 85.6627 656.611 85.2707 656.611 84.832C656.611 84.2627 656.77 83.768 657.087 83.348C657.405 82.928 657.848 82.606 658.417 82.382C658.987 82.1487 659.64 82.032 660.377 82.032C661.124 82.032 661.782 82.1487 662.351 82.382C662.93 82.606 663.378 82.928 663.695 83.348C664.013 83.768 664.171 84.2627 664.171 84.832C664.171 85.2707 664.073 85.6627 663.877 86.008C663.681 86.344 663.397 86.624 663.023 86.848ZM660.377 83.698C659.92 83.698 659.551 83.81 659.271 84.034C659.001 84.2487 658.865 84.5473 658.865 84.93C658.865 85.3033 659.001 85.5973 659.271 85.812C659.542 86.0267 659.911 86.134 660.377 86.134C660.844 86.134 661.217 86.0267 661.497 85.812C661.777 85.5973 661.917 85.3033 661.917 84.93C661.917 84.5473 661.777 84.2487 661.497 84.034C661.217 83.81 660.844 83.698 660.377 83.698ZM660.377 90.502C660.947 90.502 661.395 90.376 661.721 90.124C662.057 89.8627 662.225 89.5173 662.225 89.088C662.225 88.6587 662.057 88.318 661.721 88.066C661.395 87.814 660.947 87.688 660.377 87.688C659.817 87.688 659.374 87.814 659.047 88.066C658.721 88.318 658.557 88.6587 658.557 89.088C658.557 89.5267 658.721 89.872 659.047 90.124C659.374 90.376 659.817 90.502 660.377 90.502ZM668.069 84.048H664.933V82.2H673.473V84.048H670.337V92H668.069V84.048ZM683.681 82.2V92H681.413V87.982H676.961V92H674.693V82.2H676.961V86.064H681.413V82.2H683.681Z" fill="#FB2222"/>
<path d="M735.858 85.904C736.418 86.0813 736.857 86.38 737.174 86.8C737.491 87.2107 737.65 87.7193 737.65 88.326C737.65 89.1847 737.314 89.8473 736.642 90.314C735.979 90.7713 735.009 91 733.73 91H728.662V81.2H733.45C734.645 81.2 735.559 81.4287 736.194 81.886C736.838 82.3433 737.16 82.964 737.16 83.748C737.16 84.224 737.043 84.6487 736.81 85.022C736.586 85.3953 736.269 85.6893 735.858 85.904ZM730.916 82.908V85.218H733.17C733.73 85.218 734.155 85.12 734.444 84.924C734.733 84.728 734.878 84.4387 734.878 84.056C734.878 83.6733 734.733 83.3887 734.444 83.202C734.155 83.006 733.73 82.908 733.17 82.908H730.916ZM733.562 89.292C734.159 89.292 734.607 89.194 734.906 88.998C735.214 88.802 735.368 88.4987 735.368 88.088C735.368 87.276 734.766 86.87 733.562 86.87H730.916V89.292H733.562ZM744.113 91.168C743.096 91.168 742.176 90.9487 741.355 90.51C740.543 90.0713 739.904 89.4693 739.437 88.704C738.98 87.9293 738.751 87.0613 738.751 86.1C738.751 85.1387 738.98 84.2753 739.437 83.51C739.904 82.7353 740.543 82.1287 741.355 81.69C742.176 81.2513 743.096 81.032 744.113 81.032C745.13 81.032 746.045 81.2513 746.857 81.69C747.669 82.1287 748.308 82.7353 748.775 83.51C749.242 84.2753 749.475 85.1387 749.475 86.1C749.475 87.0613 749.242 87.9293 748.775 88.704C748.308 89.4693 747.669 90.0713 746.857 90.51C746.045 90.9487 745.13 91.168 744.113 91.168ZM744.113 89.236C744.692 89.236 745.214 89.1053 745.681 88.844C746.148 88.5733 746.512 88.2 746.773 87.724C747.044 87.248 747.179 86.7067 747.179 86.1C747.179 85.4933 747.044 84.952 746.773 84.476C746.512 84 746.148 83.6313 745.681 83.37C745.214 83.0993 744.692 82.964 744.113 82.964C743.534 82.964 743.012 83.0993 742.545 83.37C742.078 83.6313 741.71 84 741.439 84.476C741.178 84.952 741.047 85.4933 741.047 86.1C741.047 86.7067 741.178 87.248 741.439 87.724C741.71 88.2 742.078 88.5733 742.545 88.844C743.012 89.1053 743.534 89.236 744.113 89.236ZM754.4 91.168C753.625 91.168 752.874 91.0653 752.146 90.86C751.427 90.6453 750.848 90.37 750.41 90.034L751.18 88.326C751.6 88.634 752.099 88.8813 752.678 89.068C753.256 89.2547 753.835 89.348 754.414 89.348C755.058 89.348 755.534 89.2547 755.842 89.068C756.15 88.872 756.304 88.6153 756.304 88.298C756.304 88.0647 756.21 87.8733 756.024 87.724C755.846 87.5653 755.613 87.4393 755.324 87.346C755.044 87.2527 754.661 87.15 754.176 87.038C753.429 86.8607 752.818 86.6833 752.342 86.506C751.866 86.3287 751.455 86.044 751.11 85.652C750.774 85.26 750.606 84.7373 750.606 84.084C750.606 83.5147 750.76 83.0013 751.068 82.544C751.376 82.0773 751.838 81.7087 752.454 81.438C753.079 81.1673 753.84 81.032 754.736 81.032C755.361 81.032 755.972 81.1067 756.57 81.256C757.167 81.4053 757.69 81.62 758.138 81.9L757.438 83.622C756.532 83.1087 755.627 82.852 754.722 82.852C754.087 82.852 753.616 82.9547 753.308 83.16C753.009 83.3653 752.86 83.636 752.86 83.972C752.86 84.308 753.032 84.56 753.378 84.728C753.732 84.8867 754.269 85.0453 754.988 85.204C755.734 85.3813 756.346 85.5587 756.822 85.736C757.298 85.9133 757.704 86.1933 758.04 86.576C758.385 86.9587 758.558 87.4767 758.558 88.13C758.558 88.69 758.399 89.2033 758.082 89.67C757.774 90.1273 757.307 90.4913 756.682 90.762C756.056 91.0327 755.296 91.168 754.4 91.168ZM762.001 83.048H758.865V81.2H767.405V83.048H764.269V91H762.001V83.048ZM773.234 91.168C772.217 91.168 771.298 90.9487 770.476 90.51C769.664 90.0713 769.025 89.4693 768.558 88.704C768.101 87.9293 767.872 87.0613 767.872 86.1C767.872 85.1387 768.101 84.2753 768.558 83.51C769.025 82.7353 769.664 82.1287 770.476 81.69C771.298 81.2513 772.217 81.032 773.234 81.032C774.252 81.032 775.166 81.2513 775.978 81.69C776.79 82.1287 777.43 82.7353 777.896 83.51C778.363 84.2753 778.596 85.1387 778.596 86.1C778.596 87.0613 778.363 87.9293 777.896 88.704C777.43 89.4693 776.79 90.0713 775.978 90.51C775.166 90.9487 774.252 91.168 773.234 91.168ZM773.234 89.236C773.813 89.236 774.336 89.1053 774.802 88.844C775.269 88.5733 775.633 88.2 775.894 87.724C776.165 87.248 776.3 86.7067 776.3 86.1C776.3 85.4933 776.165 84.952 775.894 84.476C775.633 84 775.269 83.6313 774.802 83.37C774.336 83.0993 773.813 82.964 773.234 82.964C772.656 82.964 772.133 83.0993 771.666 83.37C771.2 83.6313 770.831 84 770.56 84.476C770.299 84.952 770.168 85.4933 770.168 86.1C770.168 86.7067 770.299 87.248 770.56 87.724C770.831 88.2 771.2 88.5733 771.666 88.844C772.133 89.1053 772.656 89.236 773.234 89.236ZM789.289 81.2V91H787.427L782.541 85.05V91H780.301V81.2H782.177L787.049 87.15V81.2H789.289ZM799.814 81.2C800.682 81.2 801.433 81.3447 802.068 81.634C802.712 81.9233 803.207 82.334 803.552 82.866C803.897 83.398 804.07 84.028 804.07 84.756C804.07 85.4747 803.897 86.1047 803.552 86.646C803.207 87.178 802.712 87.5887 802.068 87.878C801.433 88.158 800.682 88.298 799.814 88.298H797.84V91H795.572V81.2H799.814ZM799.688 86.45C800.369 86.45 800.887 86.3053 801.242 86.016C801.597 85.7173 801.774 85.2973 801.774 84.756C801.774 84.2053 801.597 83.7853 801.242 83.496C800.887 83.1973 800.369 83.048 799.688 83.048H797.84V86.45H799.688ZM810.002 91.168C808.602 91.168 807.51 90.7807 806.726 90.006C805.952 89.2313 805.564 88.1253 805.564 86.688V81.2H807.832V86.604C807.832 88.3587 808.56 89.236 810.016 89.236C810.726 89.236 811.267 89.026 811.64 88.606C812.014 88.1767 812.2 87.5093 812.2 86.604V81.2H814.44V86.688C814.44 88.1253 814.048 89.2313 813.264 90.006C812.49 90.7807 811.402 91.168 810.002 91.168ZM823.878 85.904C824.438 86.0813 824.876 86.38 825.194 86.8C825.511 87.2107 825.67 87.7193 825.67 88.326C825.67 89.1847 825.334 89.8473 824.662 90.314C823.999 90.7713 823.028 91 821.75 91H816.682V81.2H821.47C822.664 81.2 823.579 81.4287 824.214 81.886C824.858 82.3433 825.18 82.964 825.18 83.748C825.18 84.224 825.063 84.6487 824.83 85.022C824.606 85.3953 824.288 85.6893 823.878 85.904ZM818.936 82.908V85.218H821.19C821.75 85.218 822.174 85.12 822.464 84.924C822.753 84.728 822.898 84.4387 822.898 84.056C822.898 83.6733 822.753 83.3887 822.464 83.202C822.174 83.006 821.75 82.908 821.19 82.908H818.936ZM821.582 89.292C822.179 89.292 822.627 89.194 822.926 88.998C823.234 88.802 823.388 88.4987 823.388 88.088C823.388 87.276 822.786 86.87 821.582 86.87H818.936V89.292H821.582ZM827.387 81.2H829.655V89.152H834.569V91H827.387V81.2ZM835.836 81.2H838.104V91H835.836V81.2ZM845.12 91.168C844.121 91.168 843.216 90.9533 842.404 90.524C841.601 90.0853 840.966 89.4833 840.5 88.718C840.042 87.9433 839.814 87.0707 839.814 86.1C839.814 85.1293 840.042 84.2613 840.5 83.496C840.966 82.7213 841.601 82.1193 842.404 81.69C843.216 81.2513 844.126 81.032 845.134 81.032C845.983 81.032 846.748 81.1813 847.43 81.48C848.12 81.7787 848.699 82.208 849.166 82.768L847.71 84.112C847.047 83.3467 846.226 82.964 845.246 82.964C844.639 82.964 844.098 83.0993 843.622 83.37C843.146 83.6313 842.772 84 842.502 84.476C842.24 84.952 842.11 85.4933 842.11 86.1C842.11 86.7067 842.24 87.248 842.502 87.724C842.772 88.2 843.146 88.5733 843.622 88.844C844.098 89.1053 844.639 89.236 845.246 89.236C846.226 89.236 847.047 88.8487 847.71 88.074L849.166 89.418C848.699 89.9873 848.12 90.4213 847.43 90.72C846.739 91.0187 845.969 91.168 845.12 91.168ZM861.284 85.946H863.356V89.922C862.824 90.3233 862.208 90.6313 861.508 90.846C860.808 91.0607 860.103 91.168 859.394 91.168C858.377 91.168 857.462 90.9533 856.65 90.524C855.838 90.0853 855.199 89.4833 854.732 88.718C854.275 87.9433 854.046 87.0707 854.046 86.1C854.046 85.1293 854.275 84.2613 854.732 83.496C855.199 82.7213 855.843 82.1193 856.664 81.69C857.485 81.2513 858.409 81.032 859.436 81.032C860.295 81.032 861.074 81.1767 861.774 81.466C862.474 81.7553 863.062 82.1753 863.538 82.726L862.082 84.07C861.382 83.3327 860.537 82.964 859.548 82.964C858.923 82.964 858.367 83.0947 857.882 83.356C857.397 83.6173 857.019 83.986 856.748 84.462C856.477 84.938 856.342 85.484 856.342 86.1C856.342 86.7067 856.477 87.248 856.748 87.724C857.019 88.2 857.392 88.5733 857.868 88.844C858.353 89.1053 858.904 89.236 859.52 89.236C860.173 89.236 860.761 89.096 861.284 88.816V85.946ZM871.917 88.9H867.367L866.499 91H864.175L868.543 81.2H870.783L875.165 91H872.785L871.917 88.9ZM871.203 87.178L869.649 83.426L868.095 87.178H871.203ZM882.426 91L880.536 88.27H880.424H878.45V91H876.182V81.2H880.424C881.292 81.2 882.043 81.3447 882.678 81.634C883.322 81.9233 883.816 82.334 884.162 82.866C884.507 83.398 884.68 84.028 884.68 84.756C884.68 85.484 884.502 86.114 884.148 86.646C883.802 87.1687 883.308 87.57 882.664 87.85L884.862 91H882.426ZM882.384 84.756C882.384 84.2053 882.206 83.7853 881.852 83.496C881.497 83.1973 880.979 83.048 880.298 83.048H878.45V86.464H880.298C880.979 86.464 881.497 86.3147 881.852 86.016C882.206 85.7173 882.384 85.2973 882.384 84.756ZM886.476 81.2H890.928C891.992 81.2 892.93 81.4053 893.742 81.816C894.564 82.2173 895.198 82.7867 895.646 83.524C896.104 84.2613 896.332 85.12 896.332 86.1C896.332 87.08 896.104 87.9387 895.646 88.676C895.198 89.4133 894.564 89.9873 893.742 90.398C892.93 90.7993 891.992 91 890.928 91H886.476V81.2ZM890.816 89.138C891.796 89.138 892.576 88.8673 893.154 88.326C893.742 87.7753 894.036 87.0333 894.036 86.1C894.036 85.1667 893.742 84.4293 893.154 83.888C892.576 83.3373 891.796 83.062 890.816 83.062H888.744V89.138H890.816ZM905.631 89.18V91H898.043V81.2H905.449V83.02H900.297V85.148H904.847V86.912H900.297V89.18H905.631ZM916.423 81.2V91H914.561L909.675 85.05V91H907.435V81.2H909.311L914.183 87.15V81.2H916.423Z" fill="white"/>
<path d="M532 95.3333C536.602 95.3333 540.333 91.6024 540.333 87C540.333 82.3976 536.602 78.6667 532 78.6667C527.398 78.6667 523.667 82.3976 523.667 87C523.667 91.6024 527.398 95.3333 532 95.3333Z" stroke="#FFB100" stroke-width="2" stroke-linecap="round" stroke-linejoin="round"/>
<path d="M532 82V87L535.333 88.6667" stroke="#FFB100" stroke-width="2" stroke-linecap="round" stroke-linejoin="round"/>
<g clip-path="url(#clip0)">
<path d="M719.5 85.3333C719.5 91.1667 712 96.1667 712 96.1667C712 96.1667 704.5 91.1667 704.5 85.3333C704.5 83.3442 705.29 81.4366 706.697 80.03C708.103 78.6235 710.011 77.8333 712 77.8333C713.989 77.8333 715.897 78.6235 717.303 80.03C718.71 81.4366 719.5 83.3442 719.5 85.3333Z" stroke="#FFB100" stroke-width="2" stroke-linecap="round" stroke-linejoin="round"/>
<path d="M712 87.8333C713.381 87.8333 714.5 86.7141 714.5 85.3333C714.5 83.9526 713.381 82.8333 712 82.8333C710.619 82.8333 709.5 83.9526 709.5 85.3333C709.5 86.7141 710.619 87.8333 712 87.8333Z" stroke="#FFB100" stroke-width="2" stroke-linecap="round" stroke-linejoin="round"/>
</g>
<path d="M693.5 74V101" stroke="white" stroke-width="3"/>
<defs>
<clipPath id="clip0">
<rect width="20" height="20" fill="white" transform="translate(702 77)"/>
</clipPath>
</defs>
</svg>
