<svg width="141" height="50" viewBox="0 0 141 50" fill="none" xmlns="http://www.w3.org/2000/svg">
<path d="M21.432 5.28L16.68 18H14.472L10.8 8.352L7.08 18H4.872L0.144 5.28H2.328L6.024 15.408L9.864 5.28H11.808L15.576 15.456L19.368 5.28H21.432ZM28.0035 5.16C29.7635 5.16 31.1075 5.592 32.0355 6.456C32.9795 7.32 33.4515 8.608 33.4515 10.32V18H31.2675V16.32C30.8835 16.912 30.3315 17.368 29.6115 17.688C28.9075 17.992 28.0675 18.144 27.0915 18.144C25.6675 18.144 24.5235 17.8 23.6595 17.112C22.8115 16.424 22.3875 15.52 22.3875 14.4C22.3875 13.28 22.7955 12.384 23.6115 11.712C24.4275 11.024 25.7235 10.68 27.4995 10.68H31.1475V10.224C31.1475 9.232 30.8595 8.472 30.2835 7.944C29.7075 7.416 28.8595 7.152 27.7395 7.152C26.9875 7.152 26.2515 7.28 25.5315 7.536C24.8115 7.776 24.2035 8.104 23.7075 8.52L22.7475 6.792C23.4035 6.264 24.1875 5.864 25.0995 5.592C26.0115 5.304 26.9795 5.16 28.0035 5.16ZM27.4755 16.368C28.3555 16.368 29.1155 16.176 29.7555 15.792C30.3955 15.392 30.8595 14.832 31.1475 14.112V12.336H27.5955C25.6435 12.336 24.6675 12.992 24.6675 14.304C24.6675 14.944 24.9155 15.448 25.4115 15.816C25.9075 16.184 26.5955 16.368 27.4755 16.368ZM44.8673 17.256C44.5313 17.544 44.1153 17.768 43.6193 17.928C43.1233 18.072 42.6113 18.144 42.0833 18.144C40.8033 18.144 39.8113 17.8 39.1073 17.112C38.4033 16.424 38.0513 15.44 38.0513 14.16V7.176H35.8913V5.28H38.0513V2.496H40.3553V5.28H44.0033V7.176H40.3553V14.064C40.3553 14.752 40.5233 15.28 40.8593 15.648C41.2113 16.016 41.7073 16.2 42.3473 16.2C43.0513 16.2 43.6513 16 44.1473 15.6L44.8673 17.256ZM52.7749 18.144C51.4789 18.144 50.3189 17.864 49.2949 17.304C48.2869 16.744 47.4949 15.976 46.9189 15C46.3429 14.008 46.0549 12.888 46.0549 11.64C46.0549 10.392 46.3429 9.28 46.9189 8.304C47.4949 7.312 48.2869 6.544 49.2949 6C50.3189 5.44 51.4789 5.16 52.7749 5.16C53.9269 5.16 54.9509 5.392 55.8469 5.856C56.7589 6.32 57.4629 6.992 57.9589 7.872L56.2069 9C55.8069 8.392 55.3109 7.936 54.7189 7.632C54.1269 7.328 53.4709 7.176 52.7509 7.176C51.9189 7.176 51.1669 7.36 50.4949 7.728C49.8389 8.096 49.3189 8.624 48.9349 9.312C48.5669 9.984 48.3829 10.76 48.3829 11.64C48.3829 12.536 48.5669 13.328 48.9349 14.016C49.3189 14.688 49.8389 15.208 50.4949 15.576C51.1669 15.944 51.9189 16.128 52.7509 16.128C53.4709 16.128 54.1269 15.976 54.7189 15.672C55.3109 15.368 55.8069 14.912 56.2069 14.304L57.9589 15.408C57.4629 16.288 56.7589 16.968 55.8469 17.448C54.9509 17.912 53.9269 18.144 52.7749 18.144ZM67.5698 5.16C69.1858 5.16 70.4658 5.632 71.4098 6.576C72.3698 7.504 72.8498 8.872 72.8498 10.68V18H70.5458V10.944C70.5458 9.712 70.2498 8.784 69.6578 8.16C69.0658 7.536 68.2178 7.224 67.1138 7.224C65.8658 7.224 64.8818 7.592 64.1618 8.328C63.4418 9.048 63.0818 10.088 63.0818 11.448V18H60.7778V0.191999H63.0818V7.08C63.5618 6.472 64.1858 6 64.9538 5.664C65.7378 5.328 66.6098 5.16 67.5698 5.16ZM76.8017 1.2H79.5137L79.0577 12.696H77.2337L76.8017 1.2ZM78.1697 18.144C77.7217 18.144 77.3457 18 77.0417 17.712C76.7377 17.408 76.5857 17.04 76.5857 16.608C76.5857 16.176 76.7377 15.816 77.0417 15.528C77.3457 15.224 77.7217 15.072 78.1697 15.072C78.6177 15.072 78.9857 15.224 79.2737 15.528C79.5617 15.816 79.7057 16.176 79.7057 16.608C79.7057 17.04 79.5537 17.408 79.2497 17.712C78.9617 18 78.6017 18.144 78.1697 18.144ZM87.6763 3.288H81.9163V1.2H95.8123V3.288H90.0523V18H87.6763V3.288ZM11.808 49.288C9.768 49.288 7.932 48.868 6.3 48.028C4.692 47.164 3.432 45.976 2.52 44.464C1.608 42.952 1.152 41.236 1.152 39.316C1.152 37.396 1.608 35.68 2.52 34.168C3.432 32.656 4.692 31.48 6.3 30.64C7.932 29.776 9.768 29.344 11.808 29.344C13.848 29.344 15.672 29.776 17.28 30.64C18.888 31.48 20.148 32.656 21.06 34.168C21.972 35.68 22.428 37.396 22.428 39.316C22.428 41.236 21.972 42.952 21.06 44.464C20.148 45.976 18.888 47.164 17.28 48.028C15.672 48.868 13.848 49.288 11.808 49.288ZM11.808 44.68C13.248 44.68 14.424 44.2 15.336 43.24C16.272 42.256 16.74 40.948 16.74 39.316C16.74 37.684 16.272 36.388 15.336 35.428C14.424 34.444 13.248 33.952 11.808 33.952C10.368 33.952 9.18 34.444 8.244 35.428C7.308 36.388 6.84 37.684 6.84 39.316C6.84 40.948 7.308 42.256 8.244 43.24C9.18 44.2 10.368 44.68 11.808 44.68ZM45.6938 29.632V49H40.3658V46.696C39.6218 47.536 38.7338 48.184 37.7018 48.64C36.6698 49.072 35.5538 49.288 34.3538 49.288C31.8098 49.288 29.7938 48.556 28.3058 47.092C26.8178 45.628 26.0738 43.456 26.0738 40.576V29.632H31.6898V39.748C31.6898 42.868 32.9978 44.428 35.6138 44.428C36.9578 44.428 38.0378 43.996 38.8538 43.132C39.6698 42.244 40.0778 40.936 40.0778 39.208V29.632H45.6938ZM63.3887 48.064C62.8367 48.472 62.1527 48.784 61.3367 49C60.5447 49.192 59.7047 49.288 58.8167 49.288C56.5127 49.288 54.7247 48.7 53.4527 47.524C52.2047 46.348 51.5807 44.62 51.5807 42.34V34.384H48.5927V30.064H51.5807V25.348H57.1967V30.064H62.0207V34.384H57.1967V42.268C57.1967 43.084 57.4007 43.72 57.8087 44.176C58.2407 44.608 58.8407 44.824 59.6087 44.824C60.4967 44.824 61.2527 44.584 61.8767 44.104L63.3887 48.064ZM73.0572 49.288C71.4492 49.288 69.8772 49.096 68.3412 48.712C66.8052 48.304 65.5812 47.8 64.6692 47.2L66.5412 43.168C67.4052 43.72 68.4492 44.176 69.6732 44.536C70.8972 44.872 72.0972 45.04 73.2732 45.04C75.6492 45.04 76.8372 44.452 76.8372 43.276C76.8372 42.724 76.5132 42.328 75.8652 42.088C75.2172 41.848 74.2212 41.644 72.8772 41.476C71.2932 41.236 69.9852 40.96 68.9532 40.648C67.9212 40.336 67.0212 39.784 66.2532 38.992C65.5092 38.2 65.1372 37.072 65.1372 35.608C65.1372 34.384 65.4852 33.304 66.1812 32.368C66.9012 31.408 67.9332 30.664 69.2772 30.136C70.6452 29.608 72.2532 29.344 74.1012 29.344C75.4692 29.344 76.8252 29.5 78.1692 29.812C79.5372 30.1 80.6652 30.508 81.5532 31.036L79.6812 35.032C77.9772 34.072 76.1172 33.592 74.1012 33.592C72.9012 33.592 72.0012 33.76 71.4012 34.096C70.8012 34.432 70.5012 34.864 70.5012 35.392C70.5012 35.992 70.8252 36.412 71.4732 36.652C72.1212 36.892 73.1532 37.12 74.5692 37.336C76.1532 37.6 77.4492 37.888 78.4572 38.2C79.4652 38.488 80.3412 39.028 81.0852 39.82C81.8292 40.612 82.2012 41.716 82.2012 43.132C82.2012 44.332 81.8412 45.4 81.1212 46.336C80.4012 47.272 79.3452 48.004 77.9532 48.532C76.5852 49.036 74.9532 49.288 73.0572 49.288ZM85.6662 29.632H91.2822V49H85.6662V29.632ZM88.4742 26.932C87.4422 26.932 86.6022 26.632 85.9542 26.032C85.3062 25.432 84.9822 24.688 84.9822 23.8C84.9822 22.912 85.3062 22.168 85.9542 21.568C86.6022 20.968 87.4422 20.668 88.4742 20.668C89.5062 20.668 90.3462 20.956 90.9942 21.532C91.6422 22.108 91.9662 22.828 91.9662 23.692C91.9662 24.628 91.6422 25.408 90.9942 26.032C90.3462 26.632 89.5062 26.932 88.4742 26.932ZM116.222 22.288V49H110.858V46.768C109.466 48.448 107.45 49.288 104.81 49.288C102.986 49.288 101.33 48.88 99.8423 48.064C98.3783 47.248 97.2263 46.084 96.3863 44.572C95.5463 43.06 95.1263 41.308 95.1263 39.316C95.1263 37.324 95.5463 35.572 96.3863 34.06C97.2263 32.548 98.3783 31.384 99.8423 30.568C101.33 29.752 102.986 29.344 104.81 29.344C107.282 29.344 109.214 30.124 110.606 31.684V22.288H116.222ZM105.782 44.68C107.198 44.68 108.374 44.2 109.31 43.24C110.246 42.256 110.714 40.948 110.714 39.316C110.714 37.684 110.246 36.388 109.31 35.428C108.374 34.444 107.198 33.952 105.782 33.952C104.342 33.952 103.154 34.444 102.218 35.428C101.282 36.388 100.814 37.684 100.814 39.316C100.814 40.948 101.282 42.256 102.218 43.24C103.154 44.2 104.342 44.68 105.782 44.68ZM140.392 39.388C140.392 39.46 140.356 39.964 140.284 40.9H125.632C125.896 42.1 126.52 43.048 127.504 43.744C128.488 44.44 129.712 44.788 131.176 44.788C132.184 44.788 133.072 44.644 133.84 44.356C134.632 44.044 135.364 43.564 136.036 42.916L139.024 46.156C137.2 48.244 134.536 49.288 131.032 49.288C128.848 49.288 126.916 48.868 125.236 48.028C123.556 47.164 122.26 45.976 121.348 44.464C120.436 42.952 119.98 41.236 119.98 39.316C119.98 37.42 120.424 35.716 121.312 34.204C122.224 32.668 123.46 31.48 125.02 30.64C126.604 29.776 128.368 29.344 130.312 29.344C132.208 29.344 133.924 29.752 135.46 30.568C136.996 31.384 138.196 32.56 139.06 34.096C139.948 35.608 140.392 37.372 140.392 39.388ZM130.348 33.592C129.076 33.592 128.008 33.952 127.144 34.672C126.28 35.392 125.752 36.376 125.56 37.624H135.1C134.908 36.4 134.38 35.428 133.516 34.708C132.652 33.964 131.596 33.592 130.348 33.592Z" fill="black"/>
</svg>
